<?xml version="1.0" encoding="utf-8" standalone="no"?>
<!DOCTYPE svg PUBLIC "-//W3C//DTD SVG 1.1//EN"
  "http://www.w3.org/Graphics/SVG/1.1/DTD/svg11.dtd">
<svg xmlns:xlink="http://www.w3.org/1999/xlink" width="1030.61pt" height="752.62pt" viewBox="0 0 1030.61 752.62" xmlns="http://www.w3.org/2000/svg" version="1.1">
 <metadata>
  <rdf:RDF xmlns:dc="http://purl.org/dc/elements/1.1/" xmlns:cc="http://creativecommons.org/ns#" xmlns:rdf="http://www.w3.org/1999/02/22-rdf-syntax-ns#">
   <cc:Work>
    <dc:type rdf:resource="http://purl.org/dc/dcmitype/StillImage"/>
    <dc:date>2026-03-14T07:29:18.058710</dc:date>
    <dc:format>image/svg+xml</dc:format>
    <dc:creator>
     <cc:Agent>
      <dc:title>Matplotlib v3.8.4, https://matplotlib.org/</dc:title>
     </cc:Agent>
    </dc:creator>
   </cc:Work>
  </rdf:RDF>
 </metadata>
 <defs>
  <style type="text/css">*{stroke-linejoin: round; stroke-linecap: butt}</style>
 </defs>
 <g id="figure_1">
  <g id="patch_1">
   <path d="M 0 752.62 
L 1030.61 752.62 
L 1030.61 0 
L 0 0 
z
" style="fill: #ffffff"/>
  </g>
  <g id="axes_1">
   <g id="patch_2">
    <path d="M 130.61 672.48 
L 1023.41 672.48 
L 1023.41 7.2 
L 130.61 7.2 
z
" style="fill: #ffffff"/>
   </g>
   <g id="matplotlib.axis_1">
    <g id="xtick_1">
     <g id="line2d_1">
      <path d="M 170.993568 672.48 
L 170.993568 7.2 
" clip-path="url(#p5f28391614)" style="fill: none; stroke: #b0b0b0; stroke-width: 0.8; stroke-linecap: square"/>
     </g>
     <g id="line2d_2">
      <defs>
       <path id="m858804dfdf" d="M 0 0 
L 0 3.5 
" style="stroke: #000000; stroke-width: 0.8"/>
      </defs>
      <g>
       <use xlink:href="#m858804dfdf" x="170.993568" y="672.48" style="stroke: #000000; stroke-width: 0.8"/>
      </g>
     </g>
     <g id="text_1">
      <!-- 0 -->
      <g transform="translate(160.813568 703.795) scale(0.32 -0.32)">
       <defs>
        <path id="DejaVuSans-30" d="M 2034 4250 
Q 1547 4250 1301 3770 
Q 1056 3291 1056 2328 
Q 1056 1369 1301 889 
Q 1547 409 2034 409 
Q 2525 409 2770 889 
Q 3016 1369 3016 2328 
Q 3016 3291 2770 3770 
Q 2525 4250 2034 4250 
z
M 2034 4750 
Q 2819 4750 3233 4129 
Q 3647 3509 3647 2328 
Q 3647 1150 3233 529 
Q 2819 -91 2034 -91 
Q 1250 -91 836 529 
Q 422 1150 422 2328 
Q 422 3509 836 4129 
Q 1250 4750 2034 4750 
z
" transform="scale(0.015625)"/>
       </defs>
       <use xlink:href="#DejaVuSans-30"/>
      </g>
     </g>
    </g>
    <g id="xtick_2">
     <g id="line2d_3">
      <path d="M 294.89995 672.48 
L 294.89995 7.2 
" clip-path="url(#p5f28391614)" style="fill: none; stroke: #b0b0b0; stroke-width: 0.8; stroke-linecap: square"/>
     </g>
     <g id="line2d_4">
      <g>
       <use xlink:href="#m858804dfdf" x="294.89995" y="672.48" style="stroke: #000000; stroke-width: 0.8"/>
      </g>
     </g>
     <g id="text_2">
      <!-- 5000 -->
      <g transform="translate(254.17995 703.795) scale(0.32 -0.32)">
       <defs>
        <path id="DejaVuSans-35" d="M 691 4666 
L 3169 4666 
L 3169 4134 
L 1269 4134 
L 1269 2991 
Q 1406 3038 1543 3061 
Q 1681 3084 1819 3084 
Q 2600 3084 3056 2656 
Q 3513 2228 3513 1497 
Q 3513 744 3044 326 
Q 2575 -91 1722 -91 
Q 1428 -91 1123 -41 
Q 819 9 494 109 
L 494 744 
Q 775 591 1075 516 
Q 1375 441 1709 441 
Q 2250 441 2565 725 
Q 2881 1009 2881 1497 
Q 2881 1984 2565 2268 
Q 2250 2553 1709 2553 
Q 1456 2553 1204 2497 
Q 953 2441 691 2322 
L 691 4666 
z
" transform="scale(0.015625)"/>
       </defs>
       <use xlink:href="#DejaVuSans-35"/>
       <use xlink:href="#DejaVuSans-30" x="63.623047"/>
       <use xlink:href="#DejaVuSans-30" x="127.246094"/>
       <use xlink:href="#DejaVuSans-30" x="190.869141"/>
      </g>
     </g>
    </g>
    <g id="xtick_3">
     <g id="line2d_5">
      <path d="M 418.806332 672.48 
L 418.806332 7.2 
" clip-path="url(#p5f28391614)" style="fill: none; stroke: #b0b0b0; stroke-width: 0.8; stroke-linecap: square"/>
     </g>
     <g id="line2d_6">
      <g>
       <use xlink:href="#m858804dfdf" x="418.806332" y="672.48" style="stroke: #000000; stroke-width: 0.8"/>
      </g>
     </g>
     <g id="text_3">
      <!-- 10000 -->
      <g transform="translate(367.906332 703.795) scale(0.32 -0.32)">
       <defs>
        <path id="DejaVuSans-31" d="M 794 531 
L 1825 531 
L 1825 4091 
L 703 3866 
L 703 4441 
L 1819 4666 
L 2450 4666 
L 2450 531 
L 3481 531 
L 3481 0 
L 794 0 
L 794 531 
z
" transform="scale(0.015625)"/>
       </defs>
       <use xlink:href="#DejaVuSans-31"/>
       <use xlink:href="#DejaVuSans-30" x="63.623047"/>
       <use xlink:href="#DejaVuSans-30" x="127.246094"/>
       <use xlink:href="#DejaVuSans-30" x="190.869141"/>
       <use xlink:href="#DejaVuSans-30" x="254.492188"/>
      </g>
     </g>
    </g>
    <g id="xtick_4">
     <g id="line2d_7">
      <path d="M 542.712714 672.48 
L 542.712714 7.2 
" clip-path="url(#p5f28391614)" style="fill: none; stroke: #b0b0b0; stroke-width: 0.8; stroke-linecap: square"/>
     </g>
     <g id="line2d_8">
      <g>
       <use xlink:href="#m858804dfdf" x="542.712714" y="672.48" style="stroke: #000000; stroke-width: 0.8"/>
      </g>
     </g>
     <g id="text_4">
      <!-- 15000 -->
      <g transform="translate(491.812714 703.795) scale(0.32 -0.32)">
       <use xlink:href="#DejaVuSans-31"/>
       <use xlink:href="#DejaVuSans-35" x="63.623047"/>
       <use xlink:href="#DejaVuSans-30" x="127.246094"/>
       <use xlink:href="#DejaVuSans-30" x="190.869141"/>
       <use xlink:href="#DejaVuSans-30" x="254.492188"/>
      </g>
     </g>
    </g>
    <g id="xtick_5">
     <g id="line2d_9">
      <path d="M 666.619095 672.48 
L 666.619095 7.2 
" clip-path="url(#p5f28391614)" style="fill: none; stroke: #b0b0b0; stroke-width: 0.8; stroke-linecap: square"/>
     </g>
     <g id="line2d_10">
      <g>
       <use xlink:href="#m858804dfdf" x="666.619095" y="672.48" style="stroke: #000000; stroke-width: 0.8"/>
      </g>
     </g>
     <g id="text_5">
      <!-- 20000 -->
      <g transform="translate(615.719095 703.795) scale(0.32 -0.32)">
       <defs>
        <path id="DejaVuSans-32" d="M 1228 531 
L 3431 531 
L 3431 0 
L 469 0 
L 469 531 
Q 828 903 1448 1529 
Q 2069 2156 2228 2338 
Q 2531 2678 2651 2914 
Q 2772 3150 2772 3378 
Q 2772 3750 2511 3984 
Q 2250 4219 1831 4219 
Q 1534 4219 1204 4116 
Q 875 4013 500 3803 
L 500 4441 
Q 881 4594 1212 4672 
Q 1544 4750 1819 4750 
Q 2544 4750 2975 4387 
Q 3406 4025 3406 3419 
Q 3406 3131 3298 2873 
Q 3191 2616 2906 2266 
Q 2828 2175 2409 1742 
Q 1991 1309 1228 531 
z
" transform="scale(0.015625)"/>
       </defs>
       <use xlink:href="#DejaVuSans-32"/>
       <use xlink:href="#DejaVuSans-30" x="63.623047"/>
       <use xlink:href="#DejaVuSans-30" x="127.246094"/>
       <use xlink:href="#DejaVuSans-30" x="190.869141"/>
       <use xlink:href="#DejaVuSans-30" x="254.492188"/>
      </g>
     </g>
    </g>
    <g id="xtick_6">
     <g id="line2d_11">
      <path d="M 790.525477 672.48 
L 790.525477 7.2 
" clip-path="url(#p5f28391614)" style="fill: none; stroke: #b0b0b0; stroke-width: 0.8; stroke-linecap: square"/>
     </g>
     <g id="line2d_12">
      <g>
       <use xlink:href="#m858804dfdf" x="790.525477" y="672.48" style="stroke: #000000; stroke-width: 0.8"/>
      </g>
     </g>
     <g id="text_6">
      <!-- 25000 -->
      <g transform="translate(739.625477 703.795) scale(0.32 -0.32)">
       <use xlink:href="#DejaVuSans-32"/>
       <use xlink:href="#DejaVuSans-35" x="63.623047"/>
       <use xlink:href="#DejaVuSans-30" x="127.246094"/>
       <use xlink:href="#DejaVuSans-30" x="190.869141"/>
       <use xlink:href="#DejaVuSans-30" x="254.492188"/>
      </g>
     </g>
    </g>
    <g id="xtick_7">
     <g id="line2d_13">
      <path d="M 914.431859 672.48 
L 914.431859 7.2 
" clip-path="url(#p5f28391614)" style="fill: none; stroke: #b0b0b0; stroke-width: 0.8; stroke-linecap: square"/>
     </g>
     <g id="line2d_14">
      <g>
       <use xlink:href="#m858804dfdf" x="914.431859" y="672.48" style="stroke: #000000; stroke-width: 0.8"/>
      </g>
     </g>
     <g id="text_7">
      <!-- 30000 -->
      <g transform="translate(863.531859 703.795) scale(0.32 -0.32)">
       <defs>
        <path id="DejaVuSans-33" d="M 2597 2516 
Q 3050 2419 3304 2112 
Q 3559 1806 3559 1356 
Q 3559 666 3084 287 
Q 2609 -91 1734 -91 
Q 1441 -91 1130 -33 
Q 819 25 488 141 
L 488 750 
Q 750 597 1062 519 
Q 1375 441 1716 441 
Q 2309 441 2620 675 
Q 2931 909 2931 1356 
Q 2931 1769 2642 2001 
Q 2353 2234 1838 2234 
L 1294 2234 
L 1294 2753 
L 1863 2753 
Q 2328 2753 2575 2939 
Q 2822 3125 2822 3475 
Q 2822 3834 2567 4026 
Q 2313 4219 1838 4219 
Q 1578 4219 1281 4162 
Q 984 4106 628 3988 
L 628 4550 
Q 988 4650 1302 4700 
Q 1616 4750 1894 4750 
Q 2613 4750 3031 4423 
Q 3450 4097 3450 3541 
Q 3450 3153 3228 2886 
Q 3006 2619 2597 2516 
z
" transform="scale(0.015625)"/>
       </defs>
       <use xlink:href="#DejaVuSans-33"/>
       <use xlink:href="#DejaVuSans-30" x="63.623047"/>
       <use xlink:href="#DejaVuSans-30" x="127.246094"/>
       <use xlink:href="#DejaVuSans-30" x="190.869141"/>
       <use xlink:href="#DejaVuSans-30" x="254.492188"/>
      </g>
     </g>
    </g>
    <g id="text_8">
     <!-- Charge / ADC Counts -->
     <g transform="translate(408.66 738.765) scale(0.32 -0.32)">
      <defs>
       <path id="DejaVuSans-43" d="M 4122 4306 
L 4122 3641 
Q 3803 3938 3442 4084 
Q 3081 4231 2675 4231 
Q 1875 4231 1450 3742 
Q 1025 3253 1025 2328 
Q 1025 1406 1450 917 
Q 1875 428 2675 428 
Q 3081 428 3442 575 
Q 3803 722 4122 1019 
L 4122 359 
Q 3791 134 3420 21 
Q 3050 -91 2638 -91 
Q 1578 -91 968 557 
Q 359 1206 359 2328 
Q 359 3453 968 4101 
Q 1578 4750 2638 4750 
Q 3056 4750 3426 4639 
Q 3797 4528 4122 4306 
z
" transform="scale(0.015625)"/>
       <path id="DejaVuSans-68" d="M 3513 2113 
L 3513 0 
L 2938 0 
L 2938 2094 
Q 2938 2591 2744 2837 
Q 2550 3084 2163 3084 
Q 1697 3084 1428 2787 
Q 1159 2491 1159 1978 
L 1159 0 
L 581 0 
L 581 4863 
L 1159 4863 
L 1159 2956 
Q 1366 3272 1645 3428 
Q 1925 3584 2291 3584 
Q 2894 3584 3203 3211 
Q 3513 2838 3513 2113 
z
" transform="scale(0.015625)"/>
       <path id="DejaVuSans-61" d="M 2194 1759 
Q 1497 1759 1228 1600 
Q 959 1441 959 1056 
Q 959 750 1161 570 
Q 1363 391 1709 391 
Q 2188 391 2477 730 
Q 2766 1069 2766 1631 
L 2766 1759 
L 2194 1759 
z
M 3341 1997 
L 3341 0 
L 2766 0 
L 2766 531 
Q 2569 213 2275 61 
Q 1981 -91 1556 -91 
Q 1019 -91 701 211 
Q 384 513 384 1019 
Q 384 1609 779 1909 
Q 1175 2209 1959 2209 
L 2766 2209 
L 2766 2266 
Q 2766 2663 2505 2880 
Q 2244 3097 1772 3097 
Q 1472 3097 1187 3025 
Q 903 2953 641 2809 
L 641 3341 
Q 956 3463 1253 3523 
Q 1550 3584 1831 3584 
Q 2591 3584 2966 3190 
Q 3341 2797 3341 1997 
z
" transform="scale(0.015625)"/>
       <path id="DejaVuSans-72" d="M 2631 2963 
Q 2534 3019 2420 3045 
Q 2306 3072 2169 3072 
Q 1681 3072 1420 2755 
Q 1159 2438 1159 1844 
L 1159 0 
L 581 0 
L 581 3500 
L 1159 3500 
L 1159 2956 
Q 1341 3275 1631 3429 
Q 1922 3584 2338 3584 
Q 2397 3584 2469 3576 
Q 2541 3569 2628 3553 
L 2631 2963 
z
" transform="scale(0.015625)"/>
       <path id="DejaVuSans-67" d="M 2906 1791 
Q 2906 2416 2648 2759 
Q 2391 3103 1925 3103 
Q 1463 3103 1205 2759 
Q 947 2416 947 1791 
Q 947 1169 1205 825 
Q 1463 481 1925 481 
Q 2391 481 2648 825 
Q 2906 1169 2906 1791 
z
M 3481 434 
Q 3481 -459 3084 -895 
Q 2688 -1331 1869 -1331 
Q 1566 -1331 1297 -1286 
Q 1028 -1241 775 -1147 
L 775 -588 
Q 1028 -725 1275 -790 
Q 1522 -856 1778 -856 
Q 2344 -856 2625 -561 
Q 2906 -266 2906 331 
L 2906 616 
Q 2728 306 2450 153 
Q 2172 0 1784 0 
Q 1141 0 747 490 
Q 353 981 353 1791 
Q 353 2603 747 3093 
Q 1141 3584 1784 3584 
Q 2172 3584 2450 3431 
Q 2728 3278 2906 2969 
L 2906 3500 
L 3481 3500 
L 3481 434 
z
" transform="scale(0.015625)"/>
       <path id="DejaVuSans-65" d="M 3597 1894 
L 3597 1613 
L 953 1613 
Q 991 1019 1311 708 
Q 1631 397 2203 397 
Q 2534 397 2845 478 
Q 3156 559 3463 722 
L 3463 178 
Q 3153 47 2828 -22 
Q 2503 -91 2169 -91 
Q 1331 -91 842 396 
Q 353 884 353 1716 
Q 353 2575 817 3079 
Q 1281 3584 2069 3584 
Q 2775 3584 3186 3129 
Q 3597 2675 3597 1894 
z
M 3022 2063 
Q 3016 2534 2758 2815 
Q 2500 3097 2075 3097 
Q 1594 3097 1305 2825 
Q 1016 2553 972 2059 
L 3022 2063 
z
" transform="scale(0.015625)"/>
       <path id="DejaVuSans-20" transform="scale(0.015625)"/>
       <path id="DejaVuSans-2f" d="M 1625 4666 
L 2156 4666 
L 531 -594 
L 0 -594 
L 1625 4666 
z
" transform="scale(0.015625)"/>
       <path id="DejaVuSans-41" d="M 2188 4044 
L 1331 1722 
L 3047 1722 
L 2188 4044 
z
M 1831 4666 
L 2547 4666 
L 4325 0 
L 3669 0 
L 3244 1197 
L 1141 1197 
L 716 0 
L 50 0 
L 1831 4666 
z
" transform="scale(0.015625)"/>
       <path id="DejaVuSans-44" d="M 1259 4147 
L 1259 519 
L 2022 519 
Q 2988 519 3436 956 
Q 3884 1394 3884 2338 
Q 3884 3275 3436 3711 
Q 2988 4147 2022 4147 
L 1259 4147 
z
M 628 4666 
L 1925 4666 
Q 3281 4666 3915 4102 
Q 4550 3538 4550 2338 
Q 4550 1131 3912 565 
Q 3275 0 1925 0 
L 628 0 
L 628 4666 
z
" transform="scale(0.015625)"/>
       <path id="DejaVuSans-6f" d="M 1959 3097 
Q 1497 3097 1228 2736 
Q 959 2375 959 1747 
Q 959 1119 1226 758 
Q 1494 397 1959 397 
Q 2419 397 2687 759 
Q 2956 1122 2956 1747 
Q 2956 2369 2687 2733 
Q 2419 3097 1959 3097 
z
M 1959 3584 
Q 2709 3584 3137 3096 
Q 3566 2609 3566 1747 
Q 3566 888 3137 398 
Q 2709 -91 1959 -91 
Q 1206 -91 779 398 
Q 353 888 353 1747 
Q 353 2609 779 3096 
Q 1206 3584 1959 3584 
z
" transform="scale(0.015625)"/>
       <path id="DejaVuSans-75" d="M 544 1381 
L 544 3500 
L 1119 3500 
L 1119 1403 
Q 1119 906 1312 657 
Q 1506 409 1894 409 
Q 2359 409 2629 706 
Q 2900 1003 2900 1516 
L 2900 3500 
L 3475 3500 
L 3475 0 
L 2900 0 
L 2900 538 
Q 2691 219 2414 64 
Q 2138 -91 1772 -91 
Q 1169 -91 856 284 
Q 544 659 544 1381 
z
M 1991 3584 
L 1991 3584 
z
" transform="scale(0.015625)"/>
       <path id="DejaVuSans-6e" d="M 3513 2113 
L 3513 0 
L 2938 0 
L 2938 2094 
Q 2938 2591 2744 2837 
Q 2550 3084 2163 3084 
Q 1697 3084 1428 2787 
Q 1159 2491 1159 1978 
L 1159 0 
L 581 0 
L 581 3500 
L 1159 3500 
L 1159 2956 
Q 1366 3272 1645 3428 
Q 1925 3584 2291 3584 
Q 2894 3584 3203 3211 
Q 3513 2838 3513 2113 
z
" transform="scale(0.015625)"/>
       <path id="DejaVuSans-74" d="M 1172 4494 
L 1172 3500 
L 2356 3500 
L 2356 3053 
L 1172 3053 
L 1172 1153 
Q 1172 725 1289 603 
Q 1406 481 1766 481 
L 2356 481 
L 2356 0 
L 1766 0 
Q 1100 0 847 248 
Q 594 497 594 1153 
L 594 3053 
L 172 3053 
L 172 3500 
L 594 3500 
L 594 4494 
L 1172 4494 
z
" transform="scale(0.015625)"/>
       <path id="DejaVuSans-73" d="M 2834 3397 
L 2834 2853 
Q 2591 2978 2328 3040 
Q 2066 3103 1784 3103 
Q 1356 3103 1142 2972 
Q 928 2841 928 2578 
Q 928 2378 1081 2264 
Q 1234 2150 1697 2047 
L 1894 2003 
Q 2506 1872 2764 1633 
Q 3022 1394 3022 966 
Q 3022 478 2636 193 
Q 2250 -91 1575 -91 
Q 1294 -91 989 -36 
Q 684 19 347 128 
L 347 722 
Q 666 556 975 473 
Q 1284 391 1588 391 
Q 1994 391 2212 530 
Q 2431 669 2431 922 
Q 2431 1156 2273 1281 
Q 2116 1406 1581 1522 
L 1381 1569 
Q 847 1681 609 1914 
Q 372 2147 372 2553 
Q 372 3047 722 3315 
Q 1072 3584 1716 3584 
Q 2034 3584 2315 3537 
Q 2597 3491 2834 3397 
z
" transform="scale(0.015625)"/>
      </defs>
      <use xlink:href="#DejaVuSans-43"/>
      <use xlink:href="#DejaVuSans-68" x="69.824219"/>
      <use xlink:href="#DejaVuSans-61" x="133.203125"/>
      <use xlink:href="#DejaVuSans-72" x="194.482422"/>
      <use xlink:href="#DejaVuSans-67" x="233.845703"/>
      <use xlink:href="#DejaVuSans-65" x="297.322266"/>
      <use xlink:href="#DejaVuSans-20" x="358.845703"/>
      <use xlink:href="#DejaVuSans-2f" x="390.632812"/>
      <use xlink:href="#DejaVuSans-20" x="424.324219"/>
      <use xlink:href="#DejaVuSans-41" x="456.111328"/>
      <use xlink:href="#DejaVuSans-44" x="524.519531"/>
      <use xlink:href="#DejaVuSans-43" x="601.521484"/>
      <use xlink:href="#DejaVuSans-20" x="671.345703"/>
      <use xlink:href="#DejaVuSans-43" x="703.132812"/>
      <use xlink:href="#DejaVuSans-6f" x="772.957031"/>
      <use xlink:href="#DejaVuSans-75" x="834.138672"/>
      <use xlink:href="#DejaVuSans-6e" x="897.517578"/>
      <use xlink:href="#DejaVuSans-74" x="960.896484"/>
      <use xlink:href="#DejaVuSans-73" x="1000.105469"/>
     </g>
    </g>
   </g>
   <g id="matplotlib.axis_2">
    <g id="ytick_1">
     <g id="line2d_15">
      <path d="M 130.61 642.24 
L 1023.41 642.24 
" clip-path="url(#p5f28391614)" style="fill: none; stroke: #b0b0b0; stroke-width: 0.8; stroke-linecap: square"/>
     </g>
     <g id="line2d_16">
      <defs>
       <path id="mb332bb6dc7" d="M 0 0 
L -3.5 0 
" style="stroke: #000000; stroke-width: 0.8"/>
      </defs>
      <g>
       <use xlink:href="#mb332bb6dc7" x="130.61" y="642.24" style="stroke: #000000; stroke-width: 0.8"/>
      </g>
     </g>
     <g id="text_9">
      <!-- 0 -->
      <g transform="translate(103.25 654.3975) scale(0.32 -0.32)">
       <use xlink:href="#DejaVuSans-30"/>
      </g>
     </g>
    </g>
    <g id="ytick_2">
     <g id="line2d_17">
      <path d="M 130.61 562.24 
L 1023.41 562.24 
" clip-path="url(#p5f28391614)" style="fill: none; stroke: #b0b0b0; stroke-width: 0.8; stroke-linecap: square"/>
     </g>
     <g id="line2d_18">
      <g>
       <use xlink:href="#mb332bb6dc7" x="130.61" y="562.24" style="stroke: #000000; stroke-width: 0.8"/>
      </g>
     </g>
     <g id="text_10">
      <!-- 250 -->
      <g transform="translate(62.53 574.3975) scale(0.32 -0.32)">
       <use xlink:href="#DejaVuSans-32"/>
       <use xlink:href="#DejaVuSans-35" x="63.623047"/>
       <use xlink:href="#DejaVuSans-30" x="127.246094"/>
      </g>
     </g>
    </g>
    <g id="ytick_3">
     <g id="line2d_19">
      <path d="M 130.61 482.24 
L 1023.41 482.24 
" clip-path="url(#p5f28391614)" style="fill: none; stroke: #b0b0b0; stroke-width: 0.8; stroke-linecap: square"/>
     </g>
     <g id="line2d_20">
      <g>
       <use xlink:href="#mb332bb6dc7" x="130.61" y="482.24" style="stroke: #000000; stroke-width: 0.8"/>
      </g>
     </g>
     <g id="text_11">
      <!-- 500 -->
      <g transform="translate(62.53 494.3975) scale(0.32 -0.32)">
       <use xlink:href="#DejaVuSans-35"/>
       <use xlink:href="#DejaVuSans-30" x="63.623047"/>
       <use xlink:href="#DejaVuSans-30" x="127.246094"/>
      </g>
     </g>
    </g>
    <g id="ytick_4">
     <g id="line2d_21">
      <path d="M 130.61 402.24 
L 1023.41 402.24 
" clip-path="url(#p5f28391614)" style="fill: none; stroke: #b0b0b0; stroke-width: 0.8; stroke-linecap: square"/>
     </g>
     <g id="line2d_22">
      <g>
       <use xlink:href="#mb332bb6dc7" x="130.61" y="402.24" style="stroke: #000000; stroke-width: 0.8"/>
      </g>
     </g>
     <g id="text_12">
      <!-- 750 -->
      <g transform="translate(62.53 414.3975) scale(0.32 -0.32)">
       <defs>
        <path id="DejaVuSans-37" d="M 525 4666 
L 3525 4666 
L 3525 4397 
L 1831 0 
L 1172 0 
L 2766 4134 
L 525 4134 
L 525 4666 
z
" transform="scale(0.015625)"/>
       </defs>
       <use xlink:href="#DejaVuSans-37"/>
       <use xlink:href="#DejaVuSans-35" x="63.623047"/>
       <use xlink:href="#DejaVuSans-30" x="127.246094"/>
      </g>
     </g>
    </g>
    <g id="ytick_5">
     <g id="line2d_23">
      <path d="M 130.61 322.24 
L 1023.41 322.24 
" clip-path="url(#p5f28391614)" style="fill: none; stroke: #b0b0b0; stroke-width: 0.8; stroke-linecap: square"/>
     </g>
     <g id="line2d_24">
      <g>
       <use xlink:href="#mb332bb6dc7" x="130.61" y="322.24" style="stroke: #000000; stroke-width: 0.8"/>
      </g>
     </g>
     <g id="text_13">
      <!-- 1000 -->
      <g transform="translate(42.17 334.3975) scale(0.32 -0.32)">
       <use xlink:href="#DejaVuSans-31"/>
       <use xlink:href="#DejaVuSans-30" x="63.623047"/>
       <use xlink:href="#DejaVuSans-30" x="127.246094"/>
       <use xlink:href="#DejaVuSans-30" x="190.869141"/>
      </g>
     </g>
    </g>
    <g id="ytick_6">
     <g id="line2d_25">
      <path d="M 130.61 242.24 
L 1023.41 242.24 
" clip-path="url(#p5f28391614)" style="fill: none; stroke: #b0b0b0; stroke-width: 0.8; stroke-linecap: square"/>
     </g>
     <g id="line2d_26">
      <g>
       <use xlink:href="#mb332bb6dc7" x="130.61" y="242.24" style="stroke: #000000; stroke-width: 0.8"/>
      </g>
     </g>
     <g id="text_14">
      <!-- 1250 -->
      <g transform="translate(42.17 254.3975) scale(0.32 -0.32)">
       <use xlink:href="#DejaVuSans-31"/>
       <use xlink:href="#DejaVuSans-32" x="63.623047"/>
       <use xlink:href="#DejaVuSans-35" x="127.246094"/>
       <use xlink:href="#DejaVuSans-30" x="190.869141"/>
      </g>
     </g>
    </g>
    <g id="ytick_7">
     <g id="line2d_27">
      <path d="M 130.61 162.24 
L 1023.41 162.24 
" clip-path="url(#p5f28391614)" style="fill: none; stroke: #b0b0b0; stroke-width: 0.8; stroke-linecap: square"/>
     </g>
     <g id="line2d_28">
      <g>
       <use xlink:href="#mb332bb6dc7" x="130.61" y="162.24" style="stroke: #000000; stroke-width: 0.8"/>
      </g>
     </g>
     <g id="text_15">
      <!-- 1500 -->
      <g transform="translate(42.17 174.3975) scale(0.32 -0.32)">
       <use xlink:href="#DejaVuSans-31"/>
       <use xlink:href="#DejaVuSans-35" x="63.623047"/>
       <use xlink:href="#DejaVuSans-30" x="127.246094"/>
       <use xlink:href="#DejaVuSans-30" x="190.869141"/>
      </g>
     </g>
    </g>
    <g id="ytick_8">
     <g id="line2d_29">
      <path d="M 130.61 82.24 
L 1023.41 82.24 
" clip-path="url(#p5f28391614)" style="fill: none; stroke: #b0b0b0; stroke-width: 0.8; stroke-linecap: square"/>
     </g>
     <g id="line2d_30">
      <g>
       <use xlink:href="#mb332bb6dc7" x="130.61" y="82.24" style="stroke: #000000; stroke-width: 0.8"/>
      </g>
     </g>
     <g id="text_16">
      <!-- 1750 -->
      <g transform="translate(42.17 94.3975) scale(0.32 -0.32)">
       <use xlink:href="#DejaVuSans-31"/>
       <use xlink:href="#DejaVuSans-37" x="63.623047"/>
       <use xlink:href="#DejaVuSans-35" x="127.246094"/>
       <use xlink:href="#DejaVuSans-30" x="190.869141"/>
      </g>
     </g>
    </g>
    <g id="text_17">
     <!-- Counts -->
     <g transform="translate(31.515 395.69) rotate(-90) scale(0.32 -0.32)">
      <use xlink:href="#DejaVuSans-43"/>
      <use xlink:href="#DejaVuSans-6f" x="69.824219"/>
      <use xlink:href="#DejaVuSans-75" x="131.005859"/>
      <use xlink:href="#DejaVuSans-6e" x="194.384766"/>
      <use xlink:href="#DejaVuSans-74" x="257.763672"/>
      <use xlink:href="#DejaVuSans-73" x="296.972656"/>
     </g>
    </g>
   </g>
   <g id="line2d_31">
    <path d="M 171.191818 642.24 
L 217.384117 642.24 
L 217.384117 641.92 
L 217.780618 641.92 
L 217.780618 642.24 
L 224.124625 642.24 
L 224.124625 641.92 
L 224.521125 641.92 
L 224.521125 642.24 
L 225.314126 642.24 
L 225.314126 641.6 
L 225.710626 641.6 
L 225.710626 642.24 
L 227.296628 642.24 
L 227.296628 641.92 
L 227.693128 641.92 
L 227.693128 642.24 
L 228.486129 642.24 
L 228.486129 641.28 
L 228.88263 641.28 
L 228.88263 641.92 
L 229.67563 641.92 
L 229.67563 641.6 
L 230.072131 641.6 
L 230.072131 641.92 
L 230.865132 641.92 
L 230.865132 641.28 
L 231.261632 641.28 
L 231.261632 641.92 
L 231.658133 641.92 
L 231.658133 641.6 
L 232.451133 641.6 
L 232.451133 641.28 
L 233.244134 641.28 
L 233.244134 640.64 
L 233.640635 640.64 
L 233.640635 641.6 
L 234.037135 641.6 
L 234.037135 641.92 
L 234.433635 641.92 
L 234.433635 639.36 
L 234.830136 639.36 
L 234.830136 641.6 
L 235.226636 641.6 
L 235.226636 640.32 
L 236.416138 640.32 
L 236.416138 640 
L 237.209138 640 
L 237.209138 639.68 
L 237.605639 639.68 
L 237.605639 640 
L 238.002139 640 
L 238.002139 638.72 
L 238.39864 638.72 
L 238.39864 637.44 
L 238.79514 637.44 
L 238.79514 638.72 
L 239.191641 638.72 
L 239.191641 639.04 
L 239.588141 639.04 
L 239.588141 636.48 
L 239.984641 636.48 
L 239.984641 637.44 
L 240.381142 637.44 
L 240.381142 635.52 
L 241.174143 635.52 
L 241.174143 636.48 
L 241.570643 636.48 
L 241.570643 633.6 
L 241.967143 633.6 
L 241.967143 633.28 
L 242.363644 633.28 
L 242.363644 633.6 
L 242.760144 633.6 
L 242.760144 633.28 
L 243.156645 633.28 
L 243.156645 631.04 
L 243.553145 631.04 
L 243.553145 630.72 
L 243.949646 630.72 
L 243.949646 632 
L 244.346146 632 
L 244.346146 630.08 
L 244.742646 630.08 
L 244.742646 629.44 
L 245.139147 629.44 
L 245.139147 627.84 
L 245.535647 627.84 
L 245.535647 624 
L 245.932148 624 
L 245.932148 625.28 
L 246.328648 625.28 
L 246.328648 625.6 
L 246.725149 625.6 
L 246.725149 623.36 
L 247.121649 623.36 
L 247.121649 620.8 
L 247.518149 620.8 
L 247.518149 619.2 
L 248.31115 619.2 
L 248.31115 619.52 
L 248.707651 619.52 
L 248.707651 616.96 
L 249.104151 616.96 
L 249.104151 618.56 
L 249.500652 618.56 
L 249.500652 613.76 
L 249.897152 613.76 
L 249.897152 611.84 
L 250.293652 611.84 
L 250.293652 603.84 
L 251.483154 603.84 
L 251.483154 599.36 
L 251.879654 599.36 
L 251.879654 587.2 
L 252.276154 587.2 
L 252.276154 601.28 
L 252.672655 601.28 
L 252.672655 602.24 
L 253.069155 602.24 
L 253.069155 596.8 
L 253.465656 596.8 
L 253.465656 585.6 
L 253.862156 585.6 
L 253.862156 584.32 
L 254.258657 584.32 
L 254.258657 570.88 
L 254.655157 570.88 
L 254.655157 569.92 
L 255.051657 569.92 
L 255.051657 572.48 
L 255.448158 572.48 
L 255.448158 579.84 
L 255.844658 579.84 
L 255.844658 562.88 
L 256.241159 562.88 
L 256.241159 556.48 
L 256.637659 556.48 
L 256.637659 556.16 
L 257.03416 556.16 
L 257.03416 542.72 
L 257.43066 542.72 
L 257.43066 550.4 
L 257.82716 550.4 
L 257.82716 546.24 
L 258.223661 546.24 
L 258.223661 532.48 
L 258.620161 532.48 
L 258.620161 537.28 
L 259.016662 537.28 
L 259.016662 535.36 
L 259.413162 535.36 
L 259.413162 519.04 
L 259.809662 519.04 
L 259.809662 516.16 
L 260.206163 516.16 
L 260.206163 520.96 
L 260.602663 520.96 
L 260.602663 503.68 
L 260.999164 503.68 
L 260.999164 500.48 
L 261.395664 500.48 
L 261.395664 492.16 
L 261.792165 492.16 
L 261.792165 487.68 
L 262.188665 487.68 
L 262.188665 491.84 
L 262.585165 491.84 
L 262.585165 477.76 
L 262.981666 477.76 
L 262.981666 481.92 
L 263.378166 481.92 
L 263.378166 481.28 
L 263.774667 481.28 
L 263.774667 454.4 
L 264.171167 454.4 
L 264.171167 454.08 
L 264.567668 454.08 
L 264.567668 448.32 
L 264.964168 448.32 
L 264.964168 440 
L 265.360668 440 
L 265.360668 434.24 
L 265.757169 434.24 
L 265.757169 433.92 
L 266.153669 433.92 
L 266.153669 413.12 
L 266.55017 413.12 
L 266.55017 407.36 
L 266.94667 407.36 
L 266.94667 409.6 
L 267.34317 409.6 
L 267.34317 407.04 
L 267.739671 407.04 
L 267.739671 377.6 
L 268.136171 377.6 
L 268.136171 391.36 
L 268.532672 391.36 
L 268.532672 355.52 
L 268.929172 355.52 
L 268.929172 355.2 
L 269.325673 355.2 
L 269.325673 353.28 
L 269.722173 353.28 
L 269.722173 337.92 
L 270.118673 337.92 
L 270.118673 343.04 
L 270.515174 343.04 
L 270.515174 339.2 
L 270.911674 339.2 
L 270.911674 332.48 
L 271.308175 332.48 
L 271.308175 315.84 
L 271.704675 315.84 
L 271.704675 295.36 
L 272.101176 295.36 
L 272.101176 314.88 
L 272.497676 314.88 
L 272.497676 305.92 
L 272.894176 305.92 
L 272.894176 281.28 
L 273.290677 281.28 
L 273.290677 248.32 
L 273.687177 248.32 
L 273.687177 268.48 
L 274.083678 268.48 
L 274.083678 235.52 
L 274.480178 235.52 
L 274.480178 255.36 
L 274.876679 255.36 
L 274.876679 242.88 
L 275.273179 242.88 
L 275.273179 239.68 
L 275.669679 239.68 
L 275.669679 209.6 
L 276.06618 209.6 
L 276.06618 232.64 
L 276.46268 232.64 
L 276.46268 196.48 
L 276.859181 196.48 
L 276.859181 194.56 
L 277.255681 194.56 
L 277.255681 190.4 
L 277.652181 190.4 
L 277.652181 178.88 
L 278.048682 178.88 
L 278.048682 193.28 
L 278.445182 193.28 
L 278.445182 163.84 
L 278.841683 163.84 
L 278.841683 157.12 
L 279.238183 157.12 
L 279.238183 159.68 
L 279.634684 159.68 
L 279.634684 155.2 
L 280.031184 155.2 
L 280.031184 142.08 
L 280.427684 142.08 
L 280.427684 128.32 
L 280.824185 128.32 
L 280.824185 100.8 
L 281.220685 100.8 
L 281.220685 131.2 
L 281.617186 131.2 
L 281.617186 129.6 
L 282.013686 129.6 
L 282.013686 107.52 
L 282.410187 107.52 
L 282.410187 109.12 
L 282.806687 109.12 
L 282.806687 113.6 
L 283.203187 113.6 
L 283.203187 100.8 
L 283.599688 100.8 
L 283.599688 96.64 
L 283.996188 96.64 
L 283.996188 65.92 
L 284.392689 65.92 
L 284.392689 78.72 
L 284.789189 78.72 
L 284.789189 60.48 
L 285.185689 60.48 
L 285.185689 44.8 
L 285.58219 44.8 
L 285.58219 84.48 
L 285.97869 84.48 
L 285.97869 58.88 
L 286.375191 58.88 
L 286.375191 53.44 
L 286.771691 53.44 
L 286.771691 79.36 
L 287.168192 79.36 
L 287.168192 64.96 
L 287.564692 64.96 
L 287.564692 47.36 
L 287.961192 47.36 
L 287.961192 66.88 
L 288.357693 66.88 
L 288.357693 66.56 
L 288.754193 66.56 
L 288.754193 38.08 
L 289.150694 38.08 
L 289.150694 48.96 
L 289.547194 48.96 
L 289.547194 43.2 
L 289.943695 43.2 
L 289.943695 45.76 
L 290.340195 45.76 
L 290.340195 68.8 
L 290.736695 68.8 
L 290.736695 52.8 
L 291.133196 52.8 
L 291.133196 37.76 
L 291.529696 37.76 
L 291.529696 56 
L 291.926197 56 
L 291.926197 37.44 
L 292.322697 37.44 
L 292.322697 40.64 
L 292.719197 40.64 
L 292.719197 47.36 
L 293.115698 47.36 
L 293.115698 68.8 
L 293.512198 68.8 
L 293.512198 70.4 
L 293.908699 70.4 
L 293.908699 41.92 
L 294.305199 41.92 
L 294.305199 52.8 
L 294.7017 52.8 
L 294.7017 50.88 
L 295.0982 50.88 
L 295.0982 41.6 
L 295.4947 41.6 
L 295.4947 49.92 
L 295.891201 49.92 
L 295.891201 50.56 
L 296.287701 50.56 
L 296.287701 52.48 
L 296.684202 52.48 
L 296.684202 64.64 
L 297.080702 64.64 
L 297.080702 68.16 
L 297.477203 68.16 
L 297.477203 59.84 
L 297.873703 59.84 
L 297.873703 51.52 
L 298.270203 51.52 
L 298.270203 92.8 
L 298.666704 92.8 
L 298.666704 99.84 
L 299.063204 99.84 
L 299.063204 85.44 
L 299.459705 85.44 
L 299.459705 78.72 
L 299.856205 78.72 
L 299.856205 120.64 
L 300.252706 120.64 
L 300.252706 98.56 
L 300.649206 98.56 
L 300.649206 94.4 
L 301.045706 94.4 
L 301.045706 97.92 
L 301.442207 97.92 
L 301.442207 139.84 
L 301.838707 139.84 
L 301.838707 117.12 
L 302.235208 117.12 
L 302.235208 121.92 
L 302.631708 121.92 
L 302.631708 133.12 
L 303.028208 133.12 
L 303.028208 139.52 
L 303.821209 139.52 
L 303.821209 156.16 
L 304.21771 156.16 
L 304.21771 149.44 
L 304.61421 149.44 
L 304.61421 153.28 
L 305.010711 153.28 
L 305.010711 168.96 
L 305.407211 168.96 
L 305.407211 170.24 
L 305.803711 170.24 
L 305.803711 178.56 
L 306.200212 178.56 
L 306.200212 179.2 
L 306.596712 179.2 
L 306.596712 194.88 
L 306.993213 194.88 
L 306.993213 193.28 
L 307.389713 193.28 
L 307.389713 200.64 
L 307.786214 200.64 
L 307.786214 208.96 
L 308.182714 208.96 
L 308.182714 226.88 
L 308.579214 226.88 
L 308.579214 224 
L 308.975715 224 
L 308.975715 204.8 
L 309.372215 204.8 
L 309.372215 246.08 
L 309.768716 246.08 
L 309.768716 236.48 
L 310.165216 236.48 
L 310.165216 264.96 
L 310.561716 264.96 
L 310.561716 245.76 
L 310.958217 245.76 
L 310.958217 253.44 
L 311.354717 253.44 
L 311.354717 258.56 
L 311.751218 258.56 
L 311.751218 275.2 
L 312.147718 275.2 
L 312.147718 267.84 
L 312.544219 267.84 
L 312.544219 286.4 
L 312.940719 286.4 
L 312.940719 300.8 
L 313.337219 300.8 
L 313.337219 297.92 
L 313.73372 297.92 
L 313.73372 303.68 
L 314.13022 303.68 
L 314.13022 307.2 
L 314.526721 307.2 
L 314.526721 330.24 
L 314.923221 330.24 
L 314.923221 341.12 
L 315.319722 341.12 
L 315.319722 349.12 
L 315.716222 349.12 
L 315.716222 334.4 
L 316.112722 334.4 
L 316.112722 344.64 
L 316.509223 344.64 
L 316.509223 369.28 
L 316.905723 369.28 
L 316.905723 366.08 
L 317.302224 366.08 
L 317.302224 353.92 
L 317.698724 353.92 
L 317.698724 374.4 
L 318.095224 374.4 
L 318.095224 365.12 
L 318.491725 365.12 
L 318.491725 378.88 
L 318.888225 378.88 
L 318.888225 395.2 
L 319.284726 395.2 
L 319.284726 394.56 
L 319.681226 394.56 
L 319.681226 409.92 
L 320.077727 409.92 
L 320.077727 404.48 
L 320.474227 404.48 
L 320.474227 410.24 
L 320.870727 410.24 
L 320.870727 435.52 
L 321.267228 435.52 
L 321.267228 423.36 
L 321.663728 423.36 
L 321.663728 426.24 
L 322.060229 426.24 
L 322.060229 443.52 
L 322.456729 443.52 
L 322.456729 446.08 
L 322.85323 446.08 
L 322.85323 440 
L 323.24973 440 
L 323.24973 449.92 
L 323.64623 449.92 
L 323.64623 452.16 
L 324.042731 452.16 
L 324.042731 471.36 
L 324.439231 471.36 
L 324.439231 470.4 
L 324.835732 470.4 
L 324.835732 462.72 
L 325.232232 462.72 
L 325.232232 481.28 
L 325.628733 481.28 
L 325.628733 471.68 
L 326.025233 471.68 
L 326.025233 491.2 
L 326.421733 491.2 
L 326.421733 489.92 
L 326.818234 489.92 
L 326.818234 485.12 
L 327.214734 485.12 
L 327.214734 491.2 
L 327.611235 491.2 
L 327.611235 506.88 
L 328.007735 506.88 
L 328.007735 511.04 
L 328.404235 511.04 
L 328.404235 506.88 
L 328.800736 506.88 
L 328.800736 514.56 
L 329.197236 514.56 
L 329.197236 520 
L 329.593737 520 
L 329.593737 524.16 
L 329.990237 524.16 
L 329.990237 523.84 
L 330.386738 523.84 
L 330.386738 521.6 
L 330.783238 521.6 
L 330.783238 538.88 
L 331.179738 538.88 
L 331.179738 532.48 
L 331.576239 532.48 
L 331.576239 541.76 
L 332.36924 541.76 
L 332.36924 542.72 
L 332.76574 542.72 
L 332.76574 549.44 
L 333.162241 549.44 
L 333.162241 538.88 
L 333.558741 538.88 
L 333.558741 555.84 
L 333.955241 555.84 
L 333.955241 553.6 
L 334.351742 553.6 
L 334.351742 555.2 
L 334.748242 555.2 
L 334.748242 567.04 
L 335.144743 567.04 
L 335.144743 559.68 
L 335.541243 559.68 
L 335.541243 571.84 
L 335.937743 571.84 
L 335.937743 565.76 
L 336.334244 565.76 
L 336.334244 564.16 
L 336.730744 564.16 
L 336.730744 569.6 
L 337.127245 569.6 
L 337.127245 574.4 
L 337.523745 574.4 
L 337.523745 576.64 
L 337.920246 576.64 
L 337.920246 577.92 
L 338.316746 577.92 
L 338.316746 569.28 
L 338.713246 569.28 
L 338.713246 588.8 
L 339.506247 588.8 
L 339.506247 591.04 
L 339.902748 591.04 
L 339.902748 582.08 
L 340.299248 582.08 
L 340.299248 588.16 
L 340.695749 588.16 
L 340.695749 590.72 
L 341.092249 590.72 
L 341.092249 600 
L 341.488749 600 
L 341.488749 585.92 
L 341.88525 585.92 
L 341.88525 599.68 
L 342.28175 599.68 
L 342.28175 601.6 
L 342.678251 601.6 
L 342.678251 597.44 
L 343.074751 597.44 
L 343.074751 596.16 
L 343.471251 596.16 
L 343.471251 609.28 
L 343.867752 609.28 
L 343.867752 602.24 
L 344.264252 602.24 
L 344.264252 607.68 
L 344.660753 607.68 
L 344.660753 612.16 
L 345.057253 612.16 
L 345.057253 608.64 
L 345.453754 608.64 
L 345.453754 607.36 
L 345.850254 607.36 
L 345.850254 610.88 
L 346.246754 610.88 
L 346.246754 606.72 
L 346.643255 606.72 
L 346.643255 613.76 
L 347.039755 613.76 
L 347.039755 612.8 
L 347.436256 612.8 
L 347.436256 614.72 
L 347.832756 614.72 
L 347.832756 611.2 
L 348.229257 611.2 
L 348.229257 618.24 
L 348.625757 618.24 
L 348.625757 617.6 
L 349.022257 617.6 
L 349.022257 615.04 
L 349.418758 615.04 
L 349.418758 612.8 
L 349.815258 612.8 
L 349.815258 619.52 
L 350.211759 619.52 
L 350.211759 616.64 
L 350.608259 616.64 
L 350.608259 620.16 
L 351.00476 620.16 
L 351.00476 622.08 
L 351.40126 622.08 
L 351.40126 621.76 
L 351.79776 621.76 
L 351.79776 624.32 
L 352.194261 624.32 
L 352.194261 626.56 
L 352.590761 626.56 
L 352.590761 629.12 
L 352.987262 629.12 
L 352.987262 623.04 
L 353.383762 623.04 
L 353.383762 629.12 
L 353.780262 629.12 
L 353.780262 625.6 
L 354.176763 625.6 
L 354.176763 624.32 
L 354.969764 624.32 
L 354.969764 625.92 
L 355.366264 625.92 
L 355.366264 629.12 
L 355.762765 629.12 
L 355.762765 627.52 
L 356.159265 627.52 
L 356.159265 630.4 
L 356.555765 630.4 
L 356.555765 631.68 
L 356.952266 631.68 
L 356.952266 627.84 
L 357.745267 627.84 
L 357.745267 629.76 
L 358.141767 629.76 
L 358.141767 632 
L 358.538268 632 
L 358.538268 631.68 
L 358.934768 631.68 
L 358.934768 634.24 
L 359.331268 634.24 
L 359.331268 630.08 
L 359.727769 630.08 
L 359.727769 630.72 
L 360.124269 630.72 
L 360.124269 631.68 
L 360.52077 631.68 
L 360.52077 632 
L 360.91727 632 
L 360.91727 634.24 
L 361.31377 634.24 
L 361.31377 630.08 
L 361.710271 630.08 
L 361.710271 631.68 
L 362.106771 631.68 
L 362.106771 631.36 
L 362.503272 631.36 
L 362.503272 633.6 
L 362.899772 633.6 
L 362.899772 632.64 
L 363.296273 632.64 
L 363.296273 632.32 
L 363.692773 632.32 
L 363.692773 635.84 
L 364.089273 635.84 
L 364.089273 633.6 
L 364.882274 633.6 
L 364.882274 635.52 
L 365.278775 635.52 
L 365.278775 635.2 
L 365.675275 635.2 
L 365.675275 636.16 
L 366.071776 636.16 
L 366.071776 635.52 
L 366.468276 635.52 
L 366.468276 635.84 
L 366.864776 635.84 
L 366.864776 636.16 
L 367.261277 636.16 
L 367.261277 636.48 
L 367.657777 636.48 
L 367.657777 635.84 
L 368.054278 635.84 
L 368.054278 637.44 
L 368.450778 637.44 
L 368.450778 635.2 
L 368.847279 635.2 
L 368.847279 637.12 
L 369.243779 637.12 
L 369.243779 638.4 
L 369.640279 638.4 
L 369.640279 637.44 
L 370.03678 637.44 
L 370.03678 638.72 
L 370.43328 638.72 
L 370.43328 635.84 
L 370.829781 635.84 
L 370.829781 636.8 
L 371.226281 636.8 
L 371.226281 637.76 
L 371.622781 637.76 
L 371.622781 639.36 
L 372.019282 639.36 
L 372.019282 636.8 
L 372.415782 636.8 
L 372.415782 638.08 
L 372.812283 638.08 
L 372.812283 636.8 
L 373.208783 636.8 
L 373.208783 639.04 
L 373.605284 639.04 
L 373.605284 638.08 
L 374.001784 638.08 
L 374.001784 637.12 
L 374.398284 637.12 
L 374.398284 638.72 
L 374.794785 638.72 
L 374.794785 637.44 
L 375.191285 637.44 
L 375.191285 639.04 
L 375.587786 639.04 
L 375.587786 639.36 
L 375.984286 639.36 
L 375.984286 637.44 
L 376.380787 637.44 
L 376.380787 637.76 
L 376.777287 637.76 
L 376.777287 639.04 
L 377.173787 639.04 
L 377.173787 638.72 
L 377.570288 638.72 
L 377.570288 638.08 
L 377.966788 638.08 
L 377.966788 640 
L 378.363289 640 
L 378.363289 638.4 
L 378.759789 638.4 
L 378.759789 638.72 
L 379.156289 638.72 
L 379.156289 640.32 
L 379.55279 640.32 
L 379.55279 639.68 
L 379.94929 639.68 
L 379.94929 638.08 
L 380.345791 638.08 
L 380.345791 640 
L 381.138792 640 
L 381.138792 638.72 
L 381.535292 638.72 
L 381.535292 639.68 
L 381.931792 639.68 
L 381.931792 640.32 
L 382.328293 640.32 
L 382.328293 639.68 
L 383.121294 639.68 
L 383.121294 640.64 
L 383.914295 640.64 
L 383.914295 639.68 
L 384.310795 639.68 
L 384.310795 640 
L 384.707295 640 
L 384.707295 640.64 
L 385.103796 640.64 
L 385.103796 639.04 
L 385.500296 639.04 
L 385.500296 640.64 
L 385.896797 640.64 
L 385.896797 638.08 
L 386.293297 638.08 
L 386.293297 640 
L 386.689797 640 
L 386.689797 639.68 
L 387.086298 639.68 
L 387.086298 640 
L 387.482798 640 
L 387.482798 640.96 
L 387.879299 640.96 
L 387.879299 640.64 
L 388.275799 640.64 
L 388.275799 639.36 
L 388.6723 639.36 
L 388.6723 639.68 
L 389.0688 639.68 
L 389.0688 639.36 
L 389.4653 639.36 
L 389.4653 640.32 
L 390.258301 640.32 
L 390.258301 641.28 
L 390.654802 641.28 
L 390.654802 639.68 
L 391.051302 639.68 
L 391.051302 641.28 
L 391.447803 641.28 
L 391.447803 640.32 
L 391.844303 640.32 
L 391.844303 639.04 
L 392.240803 639.04 
L 392.240803 640 
L 392.637304 640 
L 392.637304 641.28 
L 393.033804 641.28 
L 393.033804 639.68 
L 393.430305 639.68 
L 393.430305 640 
L 394.223306 640 
L 394.223306 639.36 
L 394.619806 639.36 
L 394.619806 640.96 
L 395.016306 640.96 
L 395.016306 641.6 
L 395.412807 641.6 
L 395.412807 640 
L 395.809307 640 
L 395.809307 640.96 
L 396.205808 640.96 
L 396.205808 640.32 
L 396.998808 640.32 
L 396.998808 639.04 
L 397.395309 639.04 
L 397.395309 640.96 
L 397.791809 640.96 
L 397.791809 640.32 
L 398.18831 640.32 
L 398.18831 641.28 
L 398.58481 641.28 
L 398.58481 640.32 
L 398.981311 640.32 
L 398.981311 639.68 
L 399.377811 639.68 
L 399.377811 640.96 
L 399.774311 640.96 
L 399.774311 641.28 
L 400.170812 641.28 
L 400.170812 640.96 
L 400.963813 640.96 
L 400.963813 640 
L 401.360313 640 
L 401.360313 640.96 
L 401.756814 640.96 
L 401.756814 640.32 
L 402.153314 640.32 
L 402.153314 640 
L 402.946315 640 
L 402.946315 641.6 
L 403.739316 641.6 
L 403.739316 640.32 
L 404.135816 640.32 
L 404.135816 640.96 
L 404.532316 640.96 
L 404.532316 640.64 
L 404.928817 640.64 
L 404.928817 640 
L 405.325317 640 
L 405.325317 640.64 
L 405.721818 640.64 
L 405.721818 641.28 
L 406.118318 641.28 
L 406.118318 640 
L 406.514819 640 
L 406.514819 639.36 
L 406.911319 639.36 
L 406.911319 640.32 
L 407.307819 640.32 
L 407.307819 641.6 
L 407.70432 641.6 
L 407.70432 640.96 
L 408.10082 640.96 
L 408.10082 641.28 
L 408.497321 641.28 
L 408.497321 640.64 
L 408.893821 640.64 
L 408.893821 640 
L 409.290322 640 
L 409.290322 639.36 
L 409.686822 639.36 
L 409.686822 640 
L 410.083322 640 
L 410.083322 641.28 
L 410.479823 641.28 
L 410.479823 641.6 
L 410.876323 641.6 
L 410.876323 640.96 
L 411.272824 640.96 
L 411.272824 640.64 
L 411.669324 640.64 
L 411.669324 640.32 
L 412.065824 640.32 
L 412.065824 641.6 
L 412.858825 641.6 
L 412.858825 640.96 
L 413.255326 640.96 
L 413.255326 640.64 
L 414.048327 640.64 
L 414.048327 640.96 
L 414.444827 640.96 
L 414.444827 639.36 
L 414.841327 639.36 
L 414.841327 641.28 
L 415.237828 641.28 
L 415.237828 640.64 
L 415.634328 640.64 
L 415.634328 640.96 
L 416.030829 640.96 
L 416.030829 641.92 
L 416.427329 641.92 
L 416.427329 640.96 
L 417.22033 640.96 
L 417.22033 640.32 
L 417.61683 640.32 
L 417.61683 640.96 
L 418.013331 640.96 
L 418.013331 641.28 
L 418.409831 641.28 
L 418.409831 640.96 
L 418.806332 640.96 
L 418.806332 641.6 
L 419.202832 641.6 
L 419.202832 640.96 
L 419.599333 640.96 
L 419.599333 641.6 
L 420.392333 641.6 
L 420.392333 640.64 
L 420.788834 640.64 
L 420.788834 640.32 
L 421.185334 640.32 
L 421.185334 641.6 
L 421.581835 641.6 
L 421.581835 641.92 
L 421.978335 641.92 
L 421.978335 642.24 
L 422.374835 642.24 
L 422.374835 641.6 
L 422.771336 641.6 
L 422.771336 640.64 
L 423.167836 640.64 
L 423.167836 640.96 
L 423.564337 640.96 
L 423.564337 642.24 
L 423.960837 642.24 
L 423.960837 641.6 
L 424.357338 641.6 
L 424.357338 642.24 
L 425.150338 642.24 
L 425.150338 641.92 
L 425.546839 641.92 
L 425.546839 641.6 
L 425.943339 641.6 
L 425.943339 640.64 
L 426.33984 640.64 
L 426.33984 641.92 
L 426.73634 641.92 
L 426.73634 641.28 
L 427.132841 641.28 
L 427.132841 641.92 
L 427.529341 641.92 
L 427.529341 641.28 
L 428.322342 641.28 
L 428.322342 642.24 
L 428.718842 642.24 
L 428.718842 641.28 
L 429.511843 641.28 
L 429.511843 640.64 
L 429.908343 640.64 
L 429.908343 640.96 
L 430.304844 640.96 
L 430.304844 642.24 
L 431.097845 642.24 
L 431.097845 641.6 
L 431.494345 641.6 
L 431.494345 641.92 
L 431.890846 641.92 
L 431.890846 641.6 
L 432.287346 641.6 
L 432.287346 641.92 
L 432.683846 641.92 
L 432.683846 641.6 
L 433.080347 641.6 
L 433.080347 640.64 
L 433.476847 640.64 
L 433.476847 641.28 
L 433.873348 641.28 
L 433.873348 640.64 
L 434.269848 640.64 
L 434.269848 641.92 
L 434.666349 641.92 
L 434.666349 641.6 
L 435.062849 641.6 
L 435.062849 640.32 
L 435.459349 640.32 
L 435.459349 641.6 
L 435.85585 641.6 
L 435.85585 640.32 
L 436.25235 640.32 
L 436.25235 641.28 
L 436.648851 641.28 
L 436.648851 641.92 
L 437.045351 641.92 
L 437.045351 641.28 
L 437.838352 641.28 
L 437.838352 641.6 
L 439.027853 641.6 
L 439.027853 640.96 
L 439.424354 640.96 
L 439.424354 641.92 
L 439.820854 641.92 
L 439.820854 641.6 
L 440.217354 641.6 
L 440.217354 641.28 
L 440.613855 641.28 
L 440.613855 641.92 
L 441.010355 641.92 
L 441.010355 641.28 
L 441.406856 641.28 
L 441.406856 641.92 
L 442.199857 641.92 
L 442.199857 641.28 
L 442.596357 641.28 
L 442.596357 641.6 
L 442.992857 641.6 
L 442.992857 641.92 
L 443.785858 641.92 
L 443.785858 641.6 
L 444.578859 641.6 
L 444.578859 641.92 
L 444.97536 641.92 
L 444.97536 640.96 
L 445.37186 640.96 
L 445.37186 642.24 
L 445.76836 642.24 
L 445.76836 641.28 
L 446.164861 641.28 
L 446.164861 641.6 
L 446.561361 641.6 
L 446.561361 640.64 
L 446.957862 640.64 
L 446.957862 641.92 
L 447.354362 641.92 
L 447.354362 642.24 
L 447.750862 642.24 
L 447.750862 640.64 
L 448.147363 640.64 
L 448.147363 642.24 
L 448.543863 642.24 
L 448.543863 641.6 
L 448.940364 641.6 
L 448.940364 641.92 
L 449.733365 641.92 
L 449.733365 641.28 
L 450.129865 641.28 
L 450.129865 641.6 
L 450.526365 641.6 
L 450.526365 640.96 
L 451.319366 640.96 
L 451.319366 641.6 
L 452.112367 641.6 
L 452.112367 641.28 
L 452.508868 641.28 
L 452.508868 642.24 
L 452.905368 642.24 
L 452.905368 641.92 
L 453.301868 641.92 
L 453.301868 641.6 
L 454.094869 641.6 
L 454.094869 641.92 
L 454.49137 641.92 
L 454.49137 642.24 
L 454.88787 642.24 
L 454.88787 641.6 
L 455.28437 641.6 
L 455.28437 641.28 
L 455.680871 641.28 
L 455.680871 641.92 
L 456.473872 641.92 
L 456.473872 641.28 
L 456.870372 641.28 
L 456.870372 641.6 
L 457.663373 641.6 
L 457.663373 641.92 
L 458.852874 641.92 
L 458.852874 641.28 
L 459.249375 641.28 
L 459.249375 642.24 
L 459.645875 642.24 
L 459.645875 641.28 
L 460.042376 641.28 
L 460.042376 641.92 
L 460.835376 641.92 
L 460.835376 642.24 
L 461.231877 642.24 
L 461.231877 641.6 
L 461.628377 641.6 
L 461.628377 641.28 
L 462.024878 641.28 
L 462.024878 641.6 
L 462.421378 641.6 
L 462.421378 641.92 
L 462.817878 641.92 
L 462.817878 642.24 
L 463.610879 642.24 
L 463.610879 641.6 
L 464.00738 641.6 
L 464.00738 641.92 
L 464.40388 641.92 
L 464.40388 642.24 
L 465.196881 642.24 
L 465.196881 641.92 
L 465.593381 641.92 
L 465.593381 641.28 
L 465.989882 641.28 
L 465.989882 641.92 
L 466.386382 641.92 
L 466.386382 641.6 
L 466.782883 641.6 
L 466.782883 641.92 
L 467.179383 641.92 
L 467.179383 641.28 
L 467.972384 641.28 
L 467.972384 641.6 
L 468.368884 641.6 
L 468.368884 642.24 
L 469.161885 642.24 
L 469.161885 641.92 
L 469.558386 641.92 
L 469.558386 641.28 
L 469.954886 641.28 
L 469.954886 641.92 
L 470.351387 641.92 
L 470.351387 641.6 
L 470.747887 641.6 
L 470.747887 641.92 
L 471.144387 641.92 
L 471.144387 641.6 
L 471.540888 641.6 
L 471.540888 641.92 
L 471.937388 641.92 
L 471.937388 640.96 
L 472.333889 640.96 
L 472.333889 641.28 
L 473.126889 641.28 
L 473.126889 641.92 
L 473.91989 641.92 
L 473.91989 640.96 
L 474.316391 640.96 
L 474.316391 641.92 
L 475.109392 641.92 
L 475.109392 640.64 
L 475.505892 640.64 
L 475.505892 640.96 
L 475.902392 640.96 
L 475.902392 642.24 
L 476.298893 642.24 
L 476.298893 641.6 
L 476.695393 641.6 
L 476.695393 641.92 
L 477.091894 641.92 
L 477.091894 642.24 
L 477.884895 642.24 
L 477.884895 641.92 
L 478.677895 641.92 
L 478.677895 641.6 
L 479.470896 641.6 
L 479.470896 641.28 
L 479.867397 641.28 
L 479.867397 641.6 
L 480.660397 641.6 
L 480.660397 642.24 
L 481.056898 642.24 
L 481.056898 641.92 
L 481.453398 641.92 
L 481.453398 642.24 
L 482.246399 642.24 
L 482.246399 641.6 
L 482.6429 641.6 
L 482.6429 642.24 
L 483.0394 642.24 
L 483.0394 641.6 
L 483.4359 641.6 
L 483.4359 642.24 
L 483.832401 642.24 
L 483.832401 641.92 
L 485.418403 641.92 
L 485.418403 642.24 
L 485.814903 642.24 
L 485.814903 641.6 
L 486.211403 641.6 
L 486.211403 642.24 
L 486.607904 642.24 
L 486.607904 641.28 
L 487.004404 641.28 
L 487.004404 641.92 
L 487.400905 641.92 
L 487.400905 641.6 
L 488.193905 641.6 
L 488.193905 640.96 
L 488.986906 640.96 
L 488.986906 642.24 
L 489.383407 642.24 
L 489.383407 641.28 
L 489.779907 641.28 
L 489.779907 641.92 
L 490.176408 641.92 
L 490.176408 641.6 
L 490.969408 641.6 
L 490.969408 641.92 
L 491.365909 641.92 
L 491.365909 641.28 
L 491.762409 641.28 
L 491.762409 642.24 
L 492.15891 642.24 
L 492.15891 641.6 
L 492.55541 641.6 
L 492.55541 641.92 
L 492.951911 641.92 
L 492.951911 640.64 
L 493.348411 640.64 
L 493.348411 641.92 
L 493.744911 641.92 
L 493.744911 642.24 
L 494.537912 642.24 
L 494.537912 641.92 
L 495.330913 641.92 
L 495.330913 641.28 
L 495.727414 641.28 
L 495.727414 641.92 
L 497.313415 641.92 
L 497.313415 641.6 
L 497.709916 641.6 
L 497.709916 641.28 
L 498.106416 641.28 
L 498.106416 641.6 
L 498.502916 641.6 
L 498.502916 642.24 
L 498.899417 642.24 
L 498.899417 641.6 
L 499.295917 641.6 
L 499.295917 642.24 
L 500.088918 642.24 
L 500.088918 641.6 
L 500.485419 641.6 
L 500.485419 641.92 
L 500.881919 641.92 
L 500.881919 641.6 
L 501.278419 641.6 
L 501.278419 641.92 
L 503.260922 641.92 
L 503.260922 642.24 
L 503.657422 642.24 
L 503.657422 641.92 
L 504.450423 641.92 
L 504.450423 641.6 
L 504.846923 641.6 
L 504.846923 641.92 
L 506.036424 641.92 
L 506.036424 642.24 
L 506.432925 642.24 
L 506.432925 641.6 
L 506.829425 641.6 
L 506.829425 642.24 
L 507.225926 642.24 
L 507.225926 641.92 
L 508.018927 641.92 
L 508.018927 642.24 
L 508.415427 642.24 
L 508.415427 641.92 
L 509.604928 641.92 
L 509.604928 641.6 
L 510.001429 641.6 
L 510.001429 642.24 
L 510.397929 642.24 
L 510.397929 641.92 
L 510.79443 641.92 
L 510.79443 641.28 
L 511.19093 641.28 
L 511.19093 641.92 
L 511.58743 641.92 
L 511.58743 641.6 
L 511.983931 641.6 
L 511.983931 641.92 
L 512.776932 641.92 
L 512.776932 642.24 
L 513.173432 642.24 
L 513.173432 641.92 
L 513.966433 641.92 
L 513.966433 642.24 
L 514.362933 642.24 
L 514.362933 641.92 
L 514.759434 641.92 
L 514.759434 641.28 
L 515.155934 641.28 
L 515.155934 642.24 
L 515.552435 642.24 
L 515.552435 641.92 
L 516.741936 641.92 
L 516.741936 642.24 
L 517.138436 642.24 
L 517.138436 641.92 
L 517.534937 641.92 
L 517.534937 642.24 
L 517.931437 642.24 
L 517.931437 641.92 
L 519.517439 641.92 
L 519.517439 642.24 
L 519.913939 642.24 
L 519.913939 641.92 
L 520.31044 641.92 
L 520.31044 642.24 
L 520.70694 642.24 
L 520.70694 641.92 
L 521.896441 641.92 
L 521.896441 641.6 
L 522.292942 641.6 
L 522.292942 642.24 
L 523.085943 642.24 
L 523.085943 641.92 
L 523.878943 641.92 
L 523.878943 641.6 
L 524.275444 641.6 
L 524.275444 641.92 
L 524.671944 641.92 
L 524.671944 642.24 
L 525.068445 642.24 
L 525.068445 641.92 
L 525.464945 641.92 
L 525.464945 641.6 
L 526.654446 641.6 
L 526.654446 642.24 
L 527.447447 642.24 
L 527.447447 641.92 
L 527.843948 641.92 
L 527.843948 642.24 
L 528.636949 642.24 
L 528.636949 641.92 
L 529.033449 641.92 
L 529.033449 642.24 
L 529.429949 642.24 
L 529.429949 641.92 
L 529.82645 641.92 
L 529.82645 642.24 
L 531.015951 642.24 
L 531.015951 641.6 
L 531.412451 641.6 
L 531.412451 641.92 
L 531.808952 641.92 
L 531.808952 642.24 
L 532.205452 642.24 
L 532.205452 641.92 
L 533.394954 641.92 
L 533.394954 641.6 
L 533.791454 641.6 
L 533.791454 642.24 
L 534.187954 642.24 
L 534.187954 641.92 
L 534.980955 641.92 
L 534.980955 642.24 
L 535.773956 642.24 
L 535.773956 641.92 
L 536.566957 641.92 
L 536.566957 641.6 
L 536.963457 641.6 
L 536.963457 642.24 
L 537.359958 642.24 
L 537.359958 641.92 
L 537.756458 641.92 
L 537.756458 642.24 
L 538.152959 642.24 
L 538.152959 641.92 
L 538.549459 641.92 
L 538.549459 642.24 
L 540.531961 642.24 
L 540.531961 641.28 
L 540.928462 641.28 
L 540.928462 641.6 
L 541.324962 641.6 
L 541.324962 642.24 
L 541.721462 642.24 
L 541.721462 641.6 
L 542.910964 641.6 
L 542.910964 642.24 
L 543.307464 642.24 
L 543.307464 641.6 
L 543.703965 641.6 
L 543.703965 641.92 
L 544.100465 641.92 
L 544.100465 642.24 
L 544.496965 642.24 
L 544.496965 641.92 
L 544.893466 641.92 
L 544.893466 641.6 
L 545.289966 641.6 
L 545.289966 641.92 
L 546.082967 641.92 
L 546.082967 642.24 
L 548.065469 642.24 
L 548.065469 641.92 
L 548.85847 641.92 
L 548.85847 642.24 
L 549.25497 642.24 
L 549.25497 641.92 
L 549.651471 641.92 
L 549.651471 641.6 
L 550.047971 641.6 
L 550.047971 641.92 
L 550.444472 641.92 
L 550.444472 642.24 
L 551.237473 642.24 
L 551.237473 641.92 
L 552.030473 641.92 
L 552.030473 642.24 
L 552.426974 642.24 
L 552.426974 641.6 
L 552.823474 641.6 
L 552.823474 642.24 
L 553.219975 642.24 
L 553.219975 641.92 
L 553.616475 641.92 
L 553.616475 642.24 
L 554.012976 642.24 
L 554.012976 641.92 
L 554.805976 641.92 
L 554.805976 642.24 
L 555.202477 642.24 
L 555.202477 641.92 
L 556.391978 641.92 
L 556.391978 642.24 
L 556.788478 642.24 
L 556.788478 641.6 
L 557.184979 641.6 
L 557.184979 641.28 
L 557.581479 641.28 
L 557.581479 641.92 
L 557.97798 641.92 
L 557.97798 642.24 
L 559.167481 642.24 
L 559.167481 641.92 
L 559.563981 641.92 
L 559.563981 642.24 
L 559.960482 642.24 
L 559.960482 641.92 
L 560.356982 641.92 
L 560.356982 642.24 
L 560.753483 642.24 
L 560.753483 641.92 
L 561.149983 641.92 
L 561.149983 642.24 
L 561.546484 642.24 
L 561.546484 641.6 
L 561.942984 641.6 
L 561.942984 642.24 
L 564.321986 642.24 
L 564.321986 641.92 
L 565.114987 641.92 
L 565.114987 641.6 
L 565.511488 641.6 
L 565.511488 642.24 
L 565.907988 642.24 
L 565.907988 641.92 
L 566.700989 641.92 
L 566.700989 642.24 
L 567.89049 642.24 
L 567.89049 641.6 
L 568.286991 641.6 
L 568.286991 642.24 
L 568.683491 642.24 
L 568.683491 641.92 
L 569.079992 641.92 
L 569.079992 642.24 
L 569.872992 642.24 
L 569.872992 641.6 
L 570.665993 641.6 
L 570.665993 641.92 
L 571.062494 641.92 
L 571.062494 641.6 
L 571.458994 641.6 
L 571.458994 641.92 
L 571.855495 641.92 
L 571.855495 642.24 
L 572.251995 642.24 
L 572.251995 641.92 
L 572.648495 641.92 
L 572.648495 642.24 
L 573.044996 642.24 
L 573.044996 641.6 
L 573.441496 641.6 
L 573.441496 641.92 
L 573.837997 641.92 
L 573.837997 642.24 
L 574.234497 642.24 
L 574.234497 641.92 
L 575.423998 641.92 
L 575.423998 642.24 
L 576.6135 642.24 
L 576.6135 641.92 
L 577.4065 641.92 
L 577.4065 642.24 
L 578.199501 642.24 
L 578.199501 641.92 
L 578.596002 641.92 
L 578.596002 642.24 
L 579.785503 642.24 
L 579.785503 641.6 
L 580.975004 641.6 
L 580.975004 642.24 
L 581.371505 642.24 
L 581.371505 641.92 
L 582.957506 641.92 
L 582.957506 642.24 
L 583.750507 642.24 
L 583.750507 641.92 
L 584.147008 641.92 
L 584.147008 642.24 
L 584.940008 642.24 
L 584.940008 641.92 
L 585.336509 641.92 
L 585.336509 642.24 
L 585.733009 642.24 
L 585.733009 641.92 
L 586.12951 641.92 
L 586.12951 642.24 
L 586.52601 642.24 
L 586.52601 641.92 
L 587.319011 641.92 
L 587.319011 641.6 
L 587.715511 641.6 
L 587.715511 641.92 
L 588.112012 641.92 
L 588.112012 642.24 
L 588.508512 642.24 
L 588.508512 641.92 
L 588.905013 641.92 
L 588.905013 642.24 
L 589.301513 642.24 
L 589.301513 641.92 
L 589.698014 641.92 
L 589.698014 642.24 
L 590.094514 642.24 
L 590.094514 641.92 
L 590.887515 641.92 
L 590.887515 642.24 
L 592.077016 642.24 
L 592.077016 641.92 
L 592.473516 641.92 
L 592.473516 642.24 
L 593.663018 642.24 
L 593.663018 641.6 
L 594.059518 641.6 
L 594.059518 642.24 
L 595.249019 642.24 
L 595.249019 641.6 
L 596.04202 641.6 
L 596.04202 641.92 
L 596.438521 641.92 
L 596.438521 642.24 
L 600.007024 642.24 
L 600.007024 641.6 
L 600.403525 641.6 
L 600.403525 642.24 
L 600.800025 642.24 
L 600.800025 641.92 
L 601.593026 641.92 
L 601.593026 642.24 
L 601.989527 642.24 
L 601.989527 641.92 
L 602.386027 641.92 
L 602.386027 642.24 
L 602.782527 642.24 
L 602.782527 641.92 
L 603.972029 641.92 
L 603.972029 642.24 
L 604.368529 642.24 
L 604.368529 641.92 
L 605.16153 641.92 
L 605.16153 642.24 
L 605.55803 642.24 
L 605.55803 641.92 
L 605.954531 641.92 
L 605.954531 642.24 
L 606.351031 642.24 
L 606.351031 641.92 
L 606.747532 641.92 
L 606.747532 642.24 
L 607.144032 642.24 
L 607.144032 641.92 
L 607.540532 641.92 
L 607.540532 642.24 
L 607.937033 642.24 
L 607.937033 641.6 
L 608.333533 641.6 
L 608.333533 642.24 
L 608.730034 642.24 
L 608.730034 641.6 
L 609.126534 641.6 
L 609.126534 641.92 
L 610.316035 641.92 
L 610.316035 642.24 
L 611.505537 642.24 
L 611.505537 641.6 
L 611.902037 641.6 
L 611.902037 642.24 
L 612.298538 642.24 
L 612.298538 641.92 
L 613.091538 641.92 
L 613.091538 641.6 
L 613.488039 641.6 
L 613.488039 641.28 
L 613.884539 641.28 
L 613.884539 641.92 
L 614.67754 641.92 
L 614.67754 642.24 
L 615.074041 642.24 
L 615.074041 641.92 
L 615.470541 641.92 
L 615.470541 642.24 
L 616.263542 642.24 
L 616.263542 641.92 
L 617.056543 641.92 
L 617.056543 642.24 
L 618.246044 642.24 
L 618.246044 641.6 
L 619.435545 641.6 
L 619.435545 642.24 
L 620.228546 642.24 
L 620.228546 641.92 
L 620.625046 641.92 
L 620.625046 642.24 
L 621.021547 642.24 
L 621.021547 641.92 
L 621.418047 641.92 
L 621.418047 642.24 
L 621.814548 642.24 
L 621.814548 641.92 
L 622.211048 641.92 
L 622.211048 641.28 
L 622.607549 641.28 
L 622.607549 641.92 
L 623.004049 641.92 
L 623.004049 642.24 
L 623.400549 642.24 
L 623.400549 641.92 
L 623.79705 641.92 
L 623.79705 642.24 
L 625.383051 642.24 
L 625.383051 641.92 
L 625.779552 641.92 
L 625.779552 642.24 
L 626.176052 642.24 
L 626.176052 641.92 
L 626.572553 641.92 
L 626.572553 642.24 
L 626.969053 642.24 
L 626.969053 641.92 
L 627.365554 641.92 
L 627.365554 642.24 
L 628.555055 642.24 
L 628.555055 641.6 
L 630.141057 641.6 
L 630.141057 642.24 
L 632.520059 642.24 
L 632.520059 641.92 
L 632.916559 641.92 
L 632.916559 642.24 
L 633.31306 642.24 
L 633.31306 641.92 
L 634.106061 641.92 
L 634.106061 642.24 
L 634.899062 642.24 
L 634.899062 641.6 
L 635.295562 641.6 
L 635.295562 642.24 
L 635.692062 642.24 
L 635.692062 641.92 
L 636.088563 641.92 
L 636.088563 642.24 
L 636.485063 642.24 
L 636.485063 641.6 
L 636.881564 641.6 
L 636.881564 641.92 
L 637.674565 641.92 
L 637.674565 642.24 
L 638.071065 642.24 
L 638.071065 641.6 
L 638.864066 641.6 
L 638.864066 642.24 
L 639.260566 642.24 
L 639.260566 641.92 
L 640.053567 641.92 
L 640.053567 642.24 
L 640.846568 642.24 
L 640.846568 641.92 
L 642.036069 641.92 
L 642.036069 642.24 
L 642.82907 642.24 
L 642.82907 641.92 
L 643.22557 641.92 
L 643.22557 642.24 
L 643.622071 642.24 
L 643.622071 641.92 
L 644.415072 641.92 
L 644.415072 642.24 
L 644.811572 642.24 
L 644.811572 641.92 
L 645.604573 641.92 
L 645.604573 642.24 
L 646.001073 642.24 
L 646.001073 641.92 
L 646.397574 641.92 
L 646.397574 642.24 
L 647.983576 642.24 
L 647.983576 641.92 
L 648.380076 641.92 
L 648.380076 642.24 
L 648.776576 642.24 
L 648.776576 641.92 
L 649.173077 641.92 
L 649.173077 642.24 
L 649.966078 642.24 
L 649.966078 641.92 
L 650.759078 641.92 
L 650.759078 641.28 
L 651.155579 641.28 
L 651.155579 641.92 
L 651.552079 641.92 
L 651.552079 641.6 
L 651.94858 641.6 
L 651.94858 642.24 
L 655.120583 642.24 
L 655.120583 641.92 
L 655.517084 641.92 
L 655.517084 641.6 
L 655.913584 641.6 
L 655.913584 642.24 
L 656.310084 642.24 
L 656.310084 641.92 
L 656.706585 641.92 
L 656.706585 642.24 
L 657.103085 642.24 
L 657.103085 641.92 
L 657.499586 641.92 
L 657.499586 642.24 
L 658.292586 642.24 
L 658.292586 641.92 
L 659.085587 641.92 
L 659.085587 641.28 
L 659.482088 641.28 
L 659.482088 642.24 
L 659.878588 642.24 
L 659.878588 641.92 
L 660.275089 641.92 
L 660.275089 642.24 
L 660.671589 642.24 
L 660.671589 641.92 
L 661.068089 641.92 
L 661.068089 642.24 
L 661.86109 642.24 
L 661.86109 641.92 
L 663.050592 641.92 
L 663.050592 641.6 
L 663.447092 641.6 
L 663.447092 641.92 
L 663.843592 641.92 
L 663.843592 642.24 
L 666.222595 642.24 
L 666.222595 641.92 
L 666.619095 641.92 
L 666.619095 642.24 
L 668.205097 642.24 
L 668.205097 641.92 
L 668.601597 641.92 
L 668.601597 642.24 
L 670.187599 642.24 
L 670.187599 641.92 
L 670.5841 641.92 
L 670.5841 642.24 
L 671.3771 642.24 
L 671.3771 641.6 
L 671.773601 641.6 
L 671.773601 642.24 
L 672.170101 642.24 
L 672.170101 641.92 
L 672.566602 641.92 
L 672.566602 642.24 
L 674.152603 642.24 
L 674.152603 641.6 
L 674.549104 641.6 
L 674.549104 642.24 
L 674.945604 642.24 
L 674.945604 641.92 
L 675.342105 641.92 
L 675.342105 642.24 
L 676.928106 642.24 
L 676.928106 641.28 
L 677.324607 641.28 
L 677.324607 642.24 
L 677.721107 642.24 
L 677.721107 641.92 
L 678.117608 641.92 
L 678.117608 642.24 
L 678.514108 642.24 
L 678.514108 641.92 
L 679.703609 641.92 
L 679.703609 642.24 
L 680.893111 642.24 
L 680.893111 641.6 
L 681.289611 641.6 
L 681.289611 642.24 
L 681.686111 642.24 
L 681.686111 641.92 
L 682.082612 641.92 
L 682.082612 642.24 
L 682.875613 642.24 
L 682.875613 641.92 
L 683.668613 641.92 
L 683.668613 642.24 
L 684.065114 642.24 
L 684.065114 641.92 
L 684.461614 641.92 
L 684.461614 642.24 
L 686.444116 642.24 
L 686.444116 641.92 
L 686.840617 641.92 
L 686.840617 642.24 
L 687.237117 642.24 
L 687.237117 641.92 
L 687.633618 641.92 
L 687.633618 642.24 
L 688.823119 642.24 
L 688.823119 641.92 
L 689.219619 641.92 
L 689.219619 642.24 
L 690.01262 642.24 
L 690.01262 641.6 
L 690.409121 641.6 
L 690.409121 642.24 
L 692.391623 642.24 
L 692.391623 641.6 
L 692.788123 641.6 
L 692.788123 642.24 
L 695.167126 642.24 
L 695.167126 641.92 
L 695.563626 641.92 
L 695.563626 642.24 
L 695.960127 642.24 
L 695.960127 641.6 
L 696.356627 641.6 
L 696.356627 642.24 
L 697.149628 642.24 
L 697.149628 641.92 
L 697.942629 641.92 
L 697.942629 642.24 
L 698.73563 642.24 
L 698.73563 641.92 
L 699.13213 641.92 
L 699.13213 642.24 
L 700.321631 642.24 
L 700.321631 641.92 
L 700.718132 641.92 
L 700.718132 642.24 
L 704.683136 642.24 
L 704.683136 641.6 
L 705.079636 641.6 
L 705.079636 641.92 
L 705.476137 641.92 
L 705.476137 642.24 
L 707.062138 642.24 
L 707.062138 641.92 
L 707.458639 641.92 
L 707.458639 641.6 
L 707.855139 641.6 
L 707.855139 641.92 
L 708.25164 641.92 
L 708.25164 642.24 
L 709.04464 642.24 
L 709.04464 641.92 
L 709.441141 641.92 
L 709.441141 642.24 
L 711.027143 642.24 
L 711.027143 641.92 
L 711.820143 641.92 
L 711.820143 642.24 
L 712.613144 642.24 
L 712.613144 641.92 
L 713.009645 641.92 
L 713.009645 642.24 
L 715.388647 642.24 
L 715.388647 641.92 
L 715.785148 641.92 
L 715.785148 642.24 
L 716.578149 642.24 
L 716.578149 641.92 
L 717.371149 641.92 
L 717.371149 642.24 
L 721.336154 642.24 
L 721.336154 641.92 
L 721.732654 641.92 
L 721.732654 642.24 
L 724.111657 642.24 
L 724.111657 641.92 
L 724.508157 641.92 
L 724.508157 642.24 
L 726.094159 642.24 
L 726.094159 641.92 
L 727.28366 641.92 
L 727.28366 642.24 
L 727.68016 642.24 
L 727.68016 641.92 
L 728.076661 641.92 
L 728.076661 642.24 
L 730.455663 642.24 
L 730.455663 641.92 
L 730.852164 641.92 
L 730.852164 642.24 
L 732.041665 642.24 
L 732.041665 641.92 
L 732.438165 641.92 
L 732.438165 642.24 
L 734.024167 642.24 
L 734.024167 641.6 
L 734.420667 641.6 
L 734.420667 642.24 
L 737.592671 642.24 
L 737.592671 641.92 
L 737.989171 641.92 
L 737.989171 642.24 
L 738.385672 642.24 
L 738.385672 641.92 
L 738.782172 641.92 
L 738.782172 641.28 
L 739.178673 641.28 
L 739.178673 641.92 
L 739.575173 641.92 
L 739.575173 642.24 
L 743.143677 642.24 
L 743.143677 641.92 
L 743.540177 641.92 
L 743.540177 642.24 
L 744.729678 642.24 
L 744.729678 641.92 
L 745.126179 641.92 
L 745.126179 642.24 
L 748.298182 642.24 
L 748.298182 641.6 
L 748.694683 641.6 
L 748.694683 641.92 
L 749.487684 641.92 
L 749.487684 642.24 
L 750.280684 642.24 
L 750.280684 641.92 
L 750.677185 641.92 
L 750.677185 642.24 
L 751.073685 642.24 
L 751.073685 641.92 
L 751.470186 641.92 
L 751.470186 642.24 
L 754.642189 642.24 
L 754.642189 641.92 
L 755.038689 641.92 
L 755.038689 642.24 
L 755.83169 642.24 
L 755.83169 641.6 
L 756.228191 641.6 
L 756.228191 642.24 
L 757.021192 642.24 
L 757.021192 641.92 
L 757.417692 641.92 
L 757.417692 642.24 
L 762.968698 642.24 
L 762.968698 641.92 
L 763.365198 641.92 
L 763.365198 642.24 
L 764.158199 642.24 
L 764.158199 641.92 
L 764.5547 641.92 
L 764.5547 642.24 
L 765.744201 642.24 
L 765.744201 641.92 
L 766.537202 641.92 
L 766.537202 642.24 
L 766.933702 642.24 
L 766.933702 641.92 
L 767.330203 641.92 
L 767.330203 642.24 
L 767.726703 642.24 
L 767.726703 641.6 
L 768.123203 641.6 
L 768.123203 642.24 
L 770.898706 642.24 
L 770.898706 641.92 
L 771.295207 641.92 
L 771.295207 642.24 
L 772.881208 642.24 
L 772.881208 641.92 
L 773.674209 641.92 
L 773.674209 642.24 
L 774.46721 642.24 
L 774.46721 641.92 
L 774.863711 641.92 
L 774.863711 642.24 
L 775.656711 642.24 
L 775.656711 641.6 
L 776.053212 641.6 
L 776.053212 642.24 
L 776.846213 642.24 
L 776.846213 641.92 
L 777.242713 641.92 
L 777.242713 642.24 
L 783.98322 642.24 
L 783.98322 641.92 
L 784.379721 641.92 
L 784.379721 642.24 
L 784.776221 642.24 
L 784.776221 641.92 
L 785.172721 641.92 
L 785.172721 642.24 
L 785.965722 642.24 
L 785.965722 641.92 
L 786.362223 641.92 
L 786.362223 642.24 
L 788.741225 642.24 
L 788.741225 641.92 
L 789.137726 641.92 
L 789.137726 642.24 
L 789.534226 642.24 
L 789.534226 641.92 
L 789.930727 641.92 
L 789.930727 642.24 
L 790.723727 642.24 
L 790.723727 641.92 
L 791.120228 641.92 
L 791.120228 642.24 
L 791.516728 642.24 
L 791.516728 641.92 
L 791.913229 641.92 
L 791.913229 642.24 
L 792.309729 642.24 
L 792.309729 641.92 
L 792.70623 641.92 
L 792.70623 642.24 
L 795.878233 642.24 
L 795.878233 641.92 
L 796.274733 641.92 
L 796.274733 642.24 
L 797.464235 642.24 
L 797.464235 641.92 
L 797.860735 641.92 
L 797.860735 642.24 
L 800.239738 642.24 
L 800.239738 641.92 
L 802.22224 641.92 
L 802.22224 642.24 
L 804.997743 642.24 
L 804.997743 641.92 
L 805.394243 641.92 
L 805.394243 642.24 
L 809.755748 642.24 
L 809.755748 641.92 
L 810.152248 641.92 
L 810.152248 642.24 
L 811.341749 642.24 
L 811.341749 641.92 
L 811.73825 641.92 
L 811.73825 642.24 
L 815.703254 642.24 
L 815.703254 641.92 
L 816.099754 641.92 
L 816.099754 642.24 
L 818.082257 642.24 
L 818.082257 641.92 
L 818.875257 641.92 
L 818.875257 642.24 
L 820.461259 642.24 
L 820.461259 641.92 
L 820.857759 641.92 
L 820.857759 642.24 
L 822.840262 642.24 
L 822.840262 641.92 
L 823.236762 641.92 
L 823.236762 642.24 
L 826.805266 642.24 
L 826.805266 641.92 
L 827.201766 641.92 
L 827.201766 642.24 
L 828.391267 642.24 
L 828.391267 641.92 
L 828.787768 641.92 
L 828.787768 642.24 
L 829.977269 642.24 
L 829.977269 641.92 
L 830.37377 641.92 
L 830.37377 642.24 
L 831.16677 642.24 
L 831.16677 641.92 
L 831.563271 641.92 
L 831.563271 642.24 
L 834.338774 642.24 
L 834.338774 641.92 
L 834.735274 641.92 
L 834.735274 642.24 
L 837.510777 642.24 
L 837.510777 641.6 
L 837.907278 641.6 
L 837.907278 642.24 
L 842.665283 642.24 
L 842.665283 641.92 
L 843.061783 641.92 
L 843.061783 642.24 
L 846.630287 642.24 
L 846.630287 641.92 
L 847.026787 641.92 
L 847.026787 642.24 
L 847.423288 642.24 
L 847.423288 641.92 
L 847.819788 641.92 
L 847.819788 642.24 
L 849.40579 642.24 
L 849.40579 641.92 
L 849.80229 641.92 
L 849.80229 642.24 
L 851.388292 642.24 
L 851.388292 641.92 
L 851.784792 641.92 
L 851.784792 642.24 
L 853.767294 642.24 
L 853.767294 641.92 
L 854.163795 641.92 
L 854.163795 642.24 
L 856.939298 642.24 
L 856.939298 641.92 
L 857.732299 641.92 
L 857.732299 642.24 
L 859.3183 642.24 
L 859.3183 641.92 
L 859.714801 641.92 
L 859.714801 642.24 
L 861.697303 642.24 
L 861.697303 641.92 
L 862.490304 641.92 
L 862.490304 642.24 
L 864.076305 642.24 
L 864.076305 641.6 
L 864.472806 641.6 
L 864.472806 642.24 
L 865.265807 642.24 
L 865.265807 641.92 
L 866.058808 641.92 
L 866.058808 642.24 
L 870.420312 642.24 
L 870.420312 641.92 
L 870.816813 641.92 
L 870.816813 642.24 
L 873.988816 642.24 
L 873.988816 641.92 
L 874.385316 641.92 
L 874.385316 642.24 
L 876.764319 642.24 
L 876.764319 641.92 
L 877.160819 641.92 
L 877.160819 642.24 
L 878.350321 642.24 
L 878.350321 641.92 
L 878.746821 641.92 
L 878.746821 642.24 
L 879.143321 642.24 
L 879.143321 641.92 
L 879.539822 641.92 
L 879.539822 642.24 
L 882.711825 642.24 
L 882.711825 641.92 
L 883.108326 641.92 
L 883.108326 642.24 
L 885.487328 642.24 
L 885.487328 641.92 
L 885.883829 641.92 
L 885.883829 642.24 
L 886.280329 642.24 
L 886.280329 641.92 
L 886.67683 641.92 
L 886.67683 642.24 
L 887.866331 642.24 
L 887.866331 641.92 
L 888.262831 641.92 
L 888.262831 642.24 
L 889.055832 642.24 
L 889.055832 641.92 
L 889.452332 641.92 
L 889.452332 642.24 
L 892.624336 642.24 
L 892.624336 641.92 
L 893.020836 641.92 
L 893.020836 642.24 
L 894.210338 642.24 
L 894.210338 641.92 
L 894.606838 641.92 
L 894.606838 642.24 
L 898.571842 642.24 
L 898.571842 641.92 
L 899.761343 641.92 
L 899.761343 642.24 
L 900.554344 642.24 
L 900.554344 641.92 
L 900.950845 641.92 
L 900.950845 642.24 
L 901.743846 642.24 
L 901.743846 641.92 
L 902.140346 641.92 
L 902.140346 642.24 
L 904.519348 642.24 
L 904.519348 641.92 
L 904.915849 641.92 
L 904.915849 642.24 
L 910.863355 642.24 
L 910.863355 641.92 
L 911.259856 641.92 
L 911.259856 642.24 
L 914.431859 642.24 
L 914.431859 641.92 
L 914.828359 641.92 
L 914.828359 642.24 
L 916.810862 642.24 
L 916.810862 641.92 
L 917.207362 641.92 
L 917.207362 642.24 
L 921.965367 642.24 
L 921.965367 641.92 
L 922.758368 641.92 
L 922.758368 642.24 
L 923.154868 642.24 
L 923.154868 641.92 
L 923.551369 641.92 
L 923.551369 642.24 
L 924.34437 642.24 
L 924.34437 641.92 
L 924.74087 641.92 
L 924.74087 642.24 
L 925.533871 642.24 
L 925.533871 641.92 
L 925.930371 641.92 
L 925.930371 642.24 
L 926.723372 642.24 
L 926.723372 641.6 
L 927.119873 641.6 
L 927.119873 642.24 
L 929.498875 642.24 
L 929.498875 641.92 
L 929.895375 641.92 
L 929.895375 642.24 
L 933.463879 642.24 
L 933.463879 641.92 
L 934.653381 641.92 
L 934.653381 642.24 
L 942.583389 642.24 
L 942.583389 641.92 
L 942.979889 641.92 
L 942.979889 642.24 
L 952.099399 642.24 
L 952.099399 641.92 
L 952.4959 641.92 
L 952.4959 642.24 
L 956.857404 642.24 
L 956.857404 641.92 
L 957.253905 641.92 
L 957.253905 642.24 
L 958.046905 642.24 
L 958.046905 641.92 
L 958.443406 641.92 
L 958.443406 642.24 
L 962.01191 642.24 
L 962.01191 641.92 
L 962.40841 641.92 
L 962.40841 642.24 
L 963.597911 642.24 
L 963.597911 641.92 
L 963.994412 641.92 
L 963.994412 642.24 
L 966.769915 642.24 
L 966.769915 641.92 
L 967.166415 641.92 
L 967.166415 642.24 
L 968.355916 642.24 
L 968.355916 641.92 
L 968.752417 641.92 
L 968.752417 642.24 
L 972.717421 642.24 
L 972.717421 641.6 
L 973.113921 641.6 
L 973.113921 642.24 
L 977.475426 642.24 
L 977.475426 641.92 
L 977.871927 641.92 
L 977.871927 642.24 
L 982.828182 642.24 
L 982.828182 642.24 
" clip-path="url(#p5f28391614)" style="fill: none; stroke: #000000; stroke-width: 2; stroke-linecap: square"/>
   </g>
   <g id="line2d_32">
    <path d="M 171.191818 642.239993 
L 220.754371 642.134834 
L 225.115876 641.888649 
L 227.891379 641.529541 
L 230.270381 640.988122 
L 232.252883 640.282445 
L 233.838885 639.484706 
L 235.424887 638.414427 
L 237.010888 636.998469 
L 238.200389 635.658321 
L 239.389891 634.03424 
L 240.579392 632.080682 
L 241.768893 629.747996 
L 242.958395 626.982688 
L 244.147896 623.727838 
L 245.337397 619.923671 
L 246.526898 615.508295 
L 247.7164 610.418607 
L 249.302401 602.474246 
L 250.888403 593.072494 
L 252.474405 582.076331 
L 254.060406 569.36441 
L 255.646408 554.837811 
L 257.23241 538.426854 
L 259.214912 515.215538 
L 261.197414 489.036863 
L 263.179916 460.033869 
L 265.558919 421.889379 
L 268.334422 373.702582 
L 273.488927 279.106055 
L 277.057431 215.475285 
L 279.436433 176.654025 
L 281.418935 147.670895 
L 283.004937 127.206574 
L 284.590939 109.508439 
L 285.78044 98.212385 
L 286.969941 88.714571 
L 288.159443 81.086978 
L 288.952443 77.067364 
L 289.745444 73.912696 
L 290.538445 71.629163 
L 291.331446 70.218883 
L 291.727946 69.840773 
L 292.124447 69.679951 
L 292.520947 69.735561 
L 292.917448 70.00651 
L 293.313948 70.491464 
L 294.106949 72.096911 
L 294.89995 74.536693 
L 295.692951 77.792135 
L 296.485952 81.841285 
L 297.675453 89.34769 
L 298.864954 98.486772 
L 300.054455 109.149788 
L 301.640457 125.530164 
L 303.226459 144.100963 
L 305.208961 169.899913 
L 307.587963 203.787624 
L 311.156467 258.282603 
L 318.293475 368.165099 
L 321.465478 413.01095 
L 324.240981 448.851639 
L 326.619984 476.695632 
L 328.998986 501.744926 
L 330.981488 520.46863 
L 332.96399 537.27463 
L 334.946492 552.234269 
L 336.928995 565.44501 
L 338.911497 577.022999 
L 340.893999 587.096436 
L 342.876501 595.799836 
L 344.462503 601.867602 
L 346.048504 607.214383 
L 347.634506 611.906932 
L 349.220508 616.009246 
L 350.806509 619.581981 
L 352.392511 622.682042 
L 353.978513 625.362326 
L 355.564514 627.67159 
L 357.150516 629.654434 
L 359.133018 631.735292 
L 361.11552 633.439591 
L 363.098022 634.828725 
L 365.080524 635.955721 
L 367.459527 637.025572 
L 369.83853 637.848744 
L 372.614033 638.568264 
L 375.786036 639.154332 
L 379.75104 639.641701 
L 384.905546 640.02396 
L 392.439054 640.332063 
L 417.02208 640.972706 
L 442.794607 641.534461 
L 463.80913 641.739381 
L 519.715689 641.933211 
L 580.776754 642.030323 
L 695.761876 642.123743 
L 835.726525 642.18029 
L 982.431681 642.224537 
L 982.828182 641.703884 
L 982.828182 641.703884 
" clip-path="url(#p5f28391614)" style="fill: none; stroke: #1f77b4; stroke-width: 4; stroke-linecap: square"/>
   </g>
   <g id="patch_3">
    <path d="M 130.61 672.48 
L 130.61 7.2 
" style="fill: none; stroke: #000000; stroke-width: 0.8; stroke-linejoin: miter; stroke-linecap: square"/>
   </g>
   <g id="patch_4">
    <path d="M 1023.41 672.48 
L 1023.41 7.2 
" style="fill: none; stroke: #000000; stroke-width: 0.8; stroke-linejoin: miter; stroke-linecap: square"/>
   </g>
   <g id="patch_5">
    <path d="M 130.61 672.48 
L 1023.41 672.48 
" style="fill: none; stroke: #000000; stroke-width: 0.8; stroke-linejoin: miter; stroke-linecap: square"/>
   </g>
   <g id="patch_6">
    <path d="M 130.61 7.2 
L 1023.41 7.2 
" style="fill: none; stroke: #000000; stroke-width: 0.8; stroke-linejoin: miter; stroke-linecap: square"/>
   </g>
   <g id="legend_1">
    <g id="patch_7">
     <path d="M 384.85 126.74 
L 1001.01 126.74 
Q 1007.41 126.74 1007.41 120.34 
L 1007.41 29.6 
Q 1007.41 23.2 1001.01 23.2 
L 384.85 23.2 
Q 378.45 23.2 378.45 29.6 
L 378.45 120.34 
Q 378.45 126.74 384.85 126.74 
z
" style="fill: #ffffff; opacity: 0.8; stroke: #cccccc; stroke-linejoin: miter"/>
    </g>
    <g id="line2d_33">
     <path d="M 391.25 49.115 
L 407.25 49.115 
L 407.25 49.115 
L 439.25 49.115 
L 439.25 49.115 
L 455.25 49.115 
" style="fill: none; stroke: #000000; stroke-width: 2; stroke-linecap: square"/>
    </g>
    <g id="text_18">
     <!-- Measured Charge -->
     <g transform="translate(480.85 60.315) scale(0.32 -0.32)">
      <defs>
       <path id="DejaVuSans-4d" d="M 628 4666 
L 1569 4666 
L 2759 1491 
L 3956 4666 
L 4897 4666 
L 4897 0 
L 4281 0 
L 4281 4097 
L 3078 897 
L 2444 897 
L 1241 4097 
L 1241 0 
L 628 0 
L 628 4666 
z
" transform="scale(0.015625)"/>
       <path id="DejaVuSans-64" d="M 2906 2969 
L 2906 4863 
L 3481 4863 
L 3481 0 
L 2906 0 
L 2906 525 
Q 2725 213 2448 61 
Q 2172 -91 1784 -91 
Q 1150 -91 751 415 
Q 353 922 353 1747 
Q 353 2572 751 3078 
Q 1150 3584 1784 3584 
Q 2172 3584 2448 3432 
Q 2725 3281 2906 2969 
z
M 947 1747 
Q 947 1113 1208 752 
Q 1469 391 1925 391 
Q 2381 391 2643 752 
Q 2906 1113 2906 1747 
Q 2906 2381 2643 2742 
Q 2381 3103 1925 3103 
Q 1469 3103 1208 2742 
Q 947 2381 947 1747 
z
" transform="scale(0.015625)"/>
      </defs>
      <use xlink:href="#DejaVuSans-4d"/>
      <use xlink:href="#DejaVuSans-65" x="86.279297"/>
      <use xlink:href="#DejaVuSans-61" x="147.802734"/>
      <use xlink:href="#DejaVuSans-73" x="209.082031"/>
      <use xlink:href="#DejaVuSans-75" x="261.181641"/>
      <use xlink:href="#DejaVuSans-72" x="324.560547"/>
      <use xlink:href="#DejaVuSans-65" x="363.423828"/>
      <use xlink:href="#DejaVuSans-64" x="424.947266"/>
      <use xlink:href="#DejaVuSans-20" x="488.423828"/>
      <use xlink:href="#DejaVuSans-43" x="520.210938"/>
      <use xlink:href="#DejaVuSans-68" x="590.035156"/>
      <use xlink:href="#DejaVuSans-61" x="653.414062"/>
      <use xlink:href="#DejaVuSans-72" x="714.693359"/>
      <use xlink:href="#DejaVuSans-67" x="754.056641"/>
      <use xlink:href="#DejaVuSans-65" x="817.533203"/>
     </g>
    </g>
    <g id="line2d_34">
     <path d="M 391.25 96.085 
L 423.25 96.085 
L 455.25 96.085 
" style="fill: none; stroke: #1f77b4; stroke-width: 4; stroke-linecap: square"/>
    </g>
    <g id="text_19">
     <!-- Predicted Charge from Unfolded -->
     <g transform="translate(480.85 107.285) scale(0.32 -0.32)">
      <defs>
       <path id="DejaVuSans-50" d="M 1259 4147 
L 1259 2394 
L 2053 2394 
Q 2494 2394 2734 2622 
Q 2975 2850 2975 3272 
Q 2975 3691 2734 3919 
Q 2494 4147 2053 4147 
L 1259 4147 
z
M 628 4666 
L 2053 4666 
Q 2838 4666 3239 4311 
Q 3641 3956 3641 3272 
Q 3641 2581 3239 2228 
Q 2838 1875 2053 1875 
L 1259 1875 
L 1259 0 
L 628 0 
L 628 4666 
z
" transform="scale(0.015625)"/>
       <path id="DejaVuSans-69" d="M 603 3500 
L 1178 3500 
L 1178 0 
L 603 0 
L 603 3500 
z
M 603 4863 
L 1178 4863 
L 1178 4134 
L 603 4134 
L 603 4863 
z
" transform="scale(0.015625)"/>
       <path id="DejaVuSans-63" d="M 3122 3366 
L 3122 2828 
Q 2878 2963 2633 3030 
Q 2388 3097 2138 3097 
Q 1578 3097 1268 2742 
Q 959 2388 959 1747 
Q 959 1106 1268 751 
Q 1578 397 2138 397 
Q 2388 397 2633 464 
Q 2878 531 3122 666 
L 3122 134 
Q 2881 22 2623 -34 
Q 2366 -91 2075 -91 
Q 1284 -91 818 406 
Q 353 903 353 1747 
Q 353 2603 823 3093 
Q 1294 3584 2113 3584 
Q 2378 3584 2631 3529 
Q 2884 3475 3122 3366 
z
" transform="scale(0.015625)"/>
       <path id="DejaVuSans-66" d="M 2375 4863 
L 2375 4384 
L 1825 4384 
Q 1516 4384 1395 4259 
Q 1275 4134 1275 3809 
L 1275 3500 
L 2222 3500 
L 2222 3053 
L 1275 3053 
L 1275 0 
L 697 0 
L 697 3053 
L 147 3053 
L 147 3500 
L 697 3500 
L 697 3744 
Q 697 4328 969 4595 
Q 1241 4863 1831 4863 
L 2375 4863 
z
" transform="scale(0.015625)"/>
       <path id="DejaVuSans-6d" d="M 3328 2828 
Q 3544 3216 3844 3400 
Q 4144 3584 4550 3584 
Q 5097 3584 5394 3201 
Q 5691 2819 5691 2113 
L 5691 0 
L 5113 0 
L 5113 2094 
Q 5113 2597 4934 2840 
Q 4756 3084 4391 3084 
Q 3944 3084 3684 2787 
Q 3425 2491 3425 1978 
L 3425 0 
L 2847 0 
L 2847 2094 
Q 2847 2600 2669 2842 
Q 2491 3084 2119 3084 
Q 1678 3084 1418 2786 
Q 1159 2488 1159 1978 
L 1159 0 
L 581 0 
L 581 3500 
L 1159 3500 
L 1159 2956 
Q 1356 3278 1631 3431 
Q 1906 3584 2284 3584 
Q 2666 3584 2933 3390 
Q 3200 3197 3328 2828 
z
" transform="scale(0.015625)"/>
       <path id="DejaVuSans-55" d="M 556 4666 
L 1191 4666 
L 1191 1831 
Q 1191 1081 1462 751 
Q 1734 422 2344 422 
Q 2950 422 3222 751 
Q 3494 1081 3494 1831 
L 3494 4666 
L 4128 4666 
L 4128 1753 
Q 4128 841 3676 375 
Q 3225 -91 2344 -91 
Q 1459 -91 1007 375 
Q 556 841 556 1753 
L 556 4666 
z
" transform="scale(0.015625)"/>
       <path id="DejaVuSans-6c" d="M 603 4863 
L 1178 4863 
L 1178 0 
L 603 0 
L 603 4863 
z
" transform="scale(0.015625)"/>
      </defs>
      <use xlink:href="#DejaVuSans-50"/>
      <use xlink:href="#DejaVuSans-72" x="58.552734"/>
      <use xlink:href="#DejaVuSans-65" x="97.416016"/>
      <use xlink:href="#DejaVuSans-64" x="158.939453"/>
      <use xlink:href="#DejaVuSans-69" x="222.416016"/>
      <use xlink:href="#DejaVuSans-63" x="250.199219"/>
      <use xlink:href="#DejaVuSans-74" x="305.179688"/>
      <use xlink:href="#DejaVuSans-65" x="344.388672"/>
      <use xlink:href="#DejaVuSans-64" x="405.912109"/>
      <use xlink:href="#DejaVuSans-20" x="469.388672"/>
      <use xlink:href="#DejaVuSans-43" x="501.175781"/>
      <use xlink:href="#DejaVuSans-68" x="571"/>
      <use xlink:href="#DejaVuSans-61" x="634.378906"/>
      <use xlink:href="#DejaVuSans-72" x="695.658203"/>
      <use xlink:href="#DejaVuSans-67" x="735.021484"/>
      <use xlink:href="#DejaVuSans-65" x="798.498047"/>
      <use xlink:href="#DejaVuSans-20" x="860.021484"/>
      <use xlink:href="#DejaVuSans-66" x="891.808594"/>
      <use xlink:href="#DejaVuSans-72" x="927.013672"/>
      <use xlink:href="#DejaVuSans-6f" x="965.876953"/>
      <use xlink:href="#DejaVuSans-6d" x="1027.058594"/>
      <use xlink:href="#DejaVuSans-20" x="1124.470703"/>
      <use xlink:href="#DejaVuSans-55" x="1156.257812"/>
      <use xlink:href="#DejaVuSans-6e" x="1229.451172"/>
      <use xlink:href="#DejaVuSans-66" x="1292.830078"/>
      <use xlink:href="#DejaVuSans-6f" x="1328.035156"/>
      <use xlink:href="#DejaVuSans-6c" x="1389.216797"/>
      <use xlink:href="#DejaVuSans-64" x="1417"/>
      <use xlink:href="#DejaVuSans-65" x="1480.476562"/>
      <use xlink:href="#DejaVuSans-64" x="1542"/>
     </g>
    </g>
   </g>
  </g>
 </g>
 <defs>
  <clipPath id="p5f28391614">
   <rect x="130.61" y="7.2" width="892.8" height="665.28"/>
  </clipPath>
 </defs>
</svg>
